<svg xmlns="http://www.w3.org/2000/svg" xmlns:xlink="http://www.w3.org/1999/xlink" viewBox="0 0 938.95 458.98"><defs><linearGradient id="linear-gradient" x1="-7649.31" y1="-1141.52" x2="-7601.12" y2="-1085.17" gradientTransform="translate(4442.68 -6372.68) rotate(-65)" gradientUnits="userSpaceOnUse"><stop offset="0" stop-color="#f69923"/><stop offset="0.31" stop-color="#f79a23"/><stop offset="0.84" stop-color="#e97826"/></linearGradient><linearGradient id="linear-gradient-2" x1="-8005.96" y1="-1147.74" x2="-7662.16" y2="-1147.74" gradientTransform="translate(4442.68 -6372.68) rotate(-65)" gradientUnits="userSpaceOnUse"><stop offset="0.32" stop-color="#9e2064"/><stop offset="0.63" stop-color="#c92037"/><stop offset="0.75" stop-color="#cd2335"/><stop offset="1" stop-color="#e97826"/></linearGradient><linearGradient id="linear-gradient-3" x1="-7964.46" y1="-1113.26" x2="-7759.58" y2="-1113.26" gradientTransform="translate(4442.68 -6372.68) rotate(-65)" gradientUnits="userSpaceOnUse"><stop offset="0" stop-color="#282662"/><stop offset="0.1" stop-color="#662e8d"/><stop offset="0.79" stop-color="#9f2064"/><stop offset="0.95" stop-color="#cd2032"/></linearGradient><linearGradient id="linear-gradient-4" x1="-7986.65" y1="-1150.94" x2="-7642.85" y2="-1150.94" xlink:href="#linear-gradient-2"/><linearGradient id="linear-gradient-5" x1="-7961.57" y1="-1146.29" x2="-7780.9" y2="-1146.29" xlink:href="#linear-gradient-3"/><linearGradient id="linear-gradient-6" x1="-7986.65" y1="-1115.36" x2="-7642.85" y2="-1115.36" xlink:href="#linear-gradient-2"/><linearGradient id="linear-gradient-7" x1="-8007.98" y1="-1117.13" x2="-7664.17" y2="-1117.13" xlink:href="#linear-gradient-2"/><linearGradient id="linear-gradient-8" x1="-7986.65" y1="-1104.78" x2="-7642.85" y2="-1104.78" xlink:href="#linear-gradient-2"/><linearGradient id="linear-gradient-9" x1="-7986.65" y1="-1105.99" x2="-7642.85" y2="-1105.99" xlink:href="#linear-gradient-2"/><linearGradient id="linear-gradient-10" x1="-7793.51" y1="-1106.23" x2="-7717.51" y2="-1106.23" xlink:href="#linear-gradient-2"/></defs><title>ApacheTM_LogoURL</title><g style="isolation:isolate"><g id="Layer_1" data-name="Layer 1"><path d="M259.68,107.58v18.35h-2.36V107.58h-6.7v-2.27h15.8v2.27h-6.74Z" style="fill:#6d6e71"/><path d="M292.56,125.93v-9.07H280.14v9.07h-2.36V105.31h2.36v9.32h12.42v-9.32h2.36v20.62h-2.36Z" style="fill:#6d6e71"/><path d="M311.37,107.58v6.77h10.4v2.27h-10.4v7.06h12v2.24H309V105.31h14v2.27H311.37Z" style="fill:#6d6e71"/><path d="M232.63,267.26L281.9,149.49h9.45l49.26,117.77H328.17l-15.26-36.82H260l-15.09,36.82H232.63Zm54.07-104.17-24.22,58.22h47.77Z" style="fill:#d22128"/><path d="M353.33,267.26V149.49H402.1c20.24,0,34.83,18.74,34.83,37,0,19.24-13.6,37.32-33.84,37.32H364.78v43.46H353.33Zm11.44-53.74h37.65c13.93,0,22.89-12.77,22.89-27,0-14.76-10.95-26.7-23.88-26.7H364.78v53.74Z" style="fill:#d22128"/><path d="M430.49,267.26l49.26-117.77h9.45l49.26,117.77H526l-15.26-36.82H457.86l-15.09,36.82H430.49Zm54.07-104.17-24.22,58.22h47.77Z" style="fill:#d22128"/><path d="M594.2,148.83c20.9,0,36.16,10.62,43.46,25.71l-9.29,5.64c-7.46-15.59-22.06-20.9-34.83-20.9-28.2,0-43.62,25.21-43.62,48.93,0,26,19.07,49.59,44.12,49.59,13.27,0,28.86-6.63,36.33-21.89l9.62,5c-7.63,17.58-28.53,27.37-46.61,27.37-32.34,0-55.07-30.85-55.07-60.71C538.3,179.18,558.7,148.83,594.2,148.83Z" style="fill:#d22128"/><path d="M749.05,149.49V267.26H737.44V212.19H667.61v55.07H656.17V149.49h11.44v52.41h69.83V149.49h11.61Z" style="fill:#d22128"/><path d="M854.78,257v10.28H775.66V149.49h77.63v10.28H787.1v42.46h57.72V212H787.1V257h67.67Z" style="fill:#d22128"/><path d="M243.62,292.19a13.19,13.19,0,0,1,3.66,1.68l-1.21,2.67a12.27,12.27,0,0,0-3.41-1.58,12.49,12.49,0,0,0-3.44-.52,7.41,7.41,0,0,0-3.85.87,2.71,2.71,0,0,0-1.44,2.44,3.21,3.21,0,0,0,.8,2.24,5.42,5.42,0,0,0,2,1.38q1.2,0.49,3.3,1.13a38.07,38.07,0,0,1,4.1,1.53,7.17,7.17,0,0,1,2.65,2.1,5.72,5.72,0,0,1,1.1,3.66,6,6,0,0,1-1.12,3.61,7.19,7.19,0,0,1-3.16,2.39,12.2,12.2,0,0,1-4.72.85,14,14,0,0,1-9.5-3.8l1.27-2.55a12.19,12.19,0,0,0,3.93,2.58,11.34,11.34,0,0,0,4.34.92,7.56,7.56,0,0,0,4.27-1,3.24,3.24,0,0,0,1.56-2.82,3.29,3.29,0,0,0-.81-2.29,5.58,5.58,0,0,0-2-1.4,34.42,34.42,0,0,0-3.3-1.13,35,35,0,0,1-4.08-1.44,6.88,6.88,0,0,1-2.65-2.06,5.64,5.64,0,0,1-1.08-3.61,5.57,5.57,0,0,1,1.07-3.38,6.82,6.82,0,0,1,3-2.25,11.89,11.89,0,0,1,4.51-.8A14.77,14.77,0,0,1,243.62,292.19Z" style="fill:#6d6e71"/><path d="M280.51,293.28a12.71,12.71,0,0,1,4.72,4.53,11.86,11.86,0,0,1,1.74,6.29,12,12,0,0,1-1.74,6.33,12.73,12.73,0,0,1-4.72,4.56,13.57,13.57,0,0,1-13.09,0,12.74,12.74,0,0,1-4.73-4.56,12.35,12.35,0,0,1,0-12.65,12.55,12.55,0,0,1,4.73-4.52A13.31,13.31,0,0,1,274,291.6,13.1,13.1,0,0,1,280.51,293.28Zm-11.58,2.35a10.22,10.22,0,0,0-3.71,3.55,9.16,9.16,0,0,0-1.39,4.92,9.27,9.27,0,0,0,1.39,5,10.24,10.24,0,0,0,8.77,4.87,10.1,10.1,0,0,0,8.7-4.87,9.37,9.37,0,0,0,1.37-5,9.24,9.24,0,0,0-1.37-4.93,10.15,10.15,0,0,0-3.68-3.55,10,10,0,0,0-5-1.32A10.09,10.09,0,0,0,268.93,295.63Z" style="fill:#6d6e71"/><path d="M304.88,294.41v8.74H316.5v2.74H304.88v10.65H302V291.67h15.8v2.74h-13Z" style="fill:#6d6e71"/><path d="M340.9,294.41v22.12h-2.84V294.41H330v-2.74H349v2.74H340.9Z" style="fill:#6d6e71"/><path d="M385.78,316.54l-6.71-20.95-6.8,20.95h-2.9l-8.32-24.86h3.05l6.83,21.57,6.74-21.54,2.84,0,6.81,21.57,6.74-21.57H397l-8.34,24.86h-2.91Z" style="fill:#6d6e71"/><path d="M411.22,310.26l-2.77,6.28h-3l11.15-24.86h2.95l11.11,24.86h-3.09l-2.77-6.28H411.22ZM418,294.92l-5.53,12.61h11.15Z" style="fill:#6d6e71"/><path d="M455.35,308.61q-1.06.07-1.66,0.07h-6.61v7.86h-2.84V291.67h9.45q4.65,0,7.22,2.18a7.65,7.65,0,0,1,2.58,6.17,8.68,8.68,0,0,1-1.44,5.11,7.94,7.94,0,0,1-4.13,3l5.81,8.44H460.5Zm3.56-4.14a5.31,5.31,0,0,0,1.83-4.37,5.08,5.08,0,0,0-1.83-4.25,8.3,8.3,0,0,0-5.23-1.44h-6.61V306h6.61A8.08,8.08,0,0,0,458.91,304.47Z" style="fill:#6d6e71"/><path d="M482.17,294.41v8.17h12.54v2.74H482.17v8.51h14.5v2.7H479.33V291.67H496.2v2.74h-14Z" style="fill:#6d6e71"/><path d="M536.32,294.41v8.74h11.62v2.74H536.32v10.65h-2.84V291.67h15.8v2.74h-13Z" style="fill:#6d6e71"/><path d="M580.75,293.28a12.71,12.71,0,0,1,4.72,4.53,11.86,11.86,0,0,1,1.74,6.29,12,12,0,0,1-1.74,6.33,12.73,12.73,0,0,1-4.72,4.56,13.57,13.57,0,0,1-13.09,0,12.74,12.74,0,0,1-4.73-4.56,12.35,12.35,0,0,1,0-12.65,12.55,12.55,0,0,1,4.73-4.52,13.31,13.31,0,0,1,6.57-1.66A13.1,13.1,0,0,1,580.75,293.28Zm-11.58,2.35a10.22,10.22,0,0,0-3.71,3.55,9.16,9.16,0,0,0-1.39,4.92,9.27,9.27,0,0,0,1.39,5,10.24,10.24,0,0,0,8.77,4.87,10.1,10.1,0,0,0,8.7-4.87,9.37,9.37,0,0,0,1.37-5,9.24,9.24,0,0,0-1.37-4.93,10.15,10.15,0,0,0-3.68-3.55,10,10,0,0,0-5-1.32A10.09,10.09,0,0,0,569.16,295.63Z" style="fill:#6d6e71"/><path d="M619.87,313.93a12.07,12.07,0,0,1-15.34,0,10.23,10.23,0,0,1-2.78-7.62V291.67h2.84v14.63a7.53,7.53,0,0,0,2,5.61,7.59,7.59,0,0,0,13.16-5.61V291.67h2.84v14.63A10.25,10.25,0,0,1,619.87,313.93Z" style="fill:#6d6e71"/><path d="M657,316.54l-14.91-20v20h-2.84V291.67h2.95l14.91,20v-20h2.81v24.86H657Z" style="fill:#6d6e71"/><path d="M693.49,293.31a12.29,12.29,0,0,1,4.59,4.47,12.32,12.32,0,0,1-4.64,17.12,13.32,13.32,0,0,1-6.55,1.63h-10V291.67H687A13,13,0,0,1,693.49,293.31Zm-13.71,20.52H687a10.08,10.08,0,0,0,5-1.26,9.36,9.36,0,0,0,3.56-3.48,9.57,9.57,0,0,0,1.31-5,9.39,9.39,0,0,0-1.34-4.95A9.74,9.74,0,0,0,692,295.7a10,10,0,0,0-5-1.28h-7.14v19.42Z" style="fill:#6d6e71"/><path d="M715.95,310.26l-2.77,6.28h-3l11.15-24.86h2.95l11.11,24.86h-3.09l-2.77-6.28H715.95Zm6.74-15.35-5.53,12.61h11.15Z" style="fill:#6d6e71"/><path d="M754,294.41v22.12h-2.84V294.41h-8.08v-2.74h19.06v2.74H754Z" style="fill:#6d6e71"/><path d="M775.83,316.54V291.67h2.84v24.86h-2.84Z" style="fill:#6d6e71"/><path d="M813.35,293.28a12.71,12.71,0,0,1,4.72,4.53,11.86,11.86,0,0,1,1.74,6.29,12,12,0,0,1-1.74,6.33,12.73,12.73,0,0,1-4.72,4.56,13.57,13.57,0,0,1-13.09,0,12.74,12.74,0,0,1-4.73-4.56,12.35,12.35,0,0,1,0-12.65,12.55,12.55,0,0,1,4.73-4.52,13.31,13.31,0,0,1,6.57-1.66A13.1,13.1,0,0,1,813.35,293.28Zm-11.58,2.35a10.22,10.22,0,0,0-3.71,3.55,9.16,9.16,0,0,0-1.39,4.92,9.27,9.27,0,0,0,1.39,5,10.24,10.24,0,0,0,8.77,4.87,10.1,10.1,0,0,0,8.7-4.87,9.37,9.37,0,0,0,1.37-5,9.24,9.24,0,0,0-1.37-4.93,10.15,10.15,0,0,0-3.68-3.55,10,10,0,0,0-5-1.32A10.09,10.09,0,0,0,801.77,295.63Z" style="fill:#6d6e71"/><path d="M852.64,316.54l-14.91-20v20h-2.84V291.67h2.95l14.91,20v-20h2.81v24.86h-2.91Z" style="fill:#6d6e71"/><path d="M192,50.21c-5.35,3.16-14.24,12.1-24.85,25.06l9.75,18.41a239.93,239.93,0,0,1,20.81-26.12c0.54-.6.82-0.88,0.82-0.88l-0.82.88c-2.27,2.5-9.15,10.53-19.54,26.49,10-.5,25.37-2.54,37.91-4.69,3.73-20.89-3.66-30.46-3.66-30.46S203,43.7,192,50.21Z" style="fill:url(#linear-gradient)"/><path d="M175.47,155.19l0.21,0-1.41.15-0.25.12Z" style="fill:none"/><path d="M165.51,188.16c-0.8.18-1.61,0.32-2.44,0.44C163.9,188.48,164.72,188.34,165.51,188.16Z" style="fill:none"/><path d="M97.86,262.11l0.31-.82q3.22-8.5,6.38-16.54,3.54-9,7-17.5,3.65-8.93,7.19-17.27,3.72-8.75,7.32-16.86,2.93-6.6,5.77-12.79l1.89-4.08q1.86-4,3.69-7.85,1.69-3.55,3.34-6.94l1.1-2.25,0.18-.36-1.2.13-0.95-1.88-0.28.55q-2.57,5.1-5.09,10.29-1.46,3-2.9,6-4,8.38-7.86,16.92t-7.66,17.29q-3.69,8.51-7.23,17T102,242.09q-3.52,8.77-6.85,17.38l-1.5,3.87Q91,270.27,88.43,277l1.5,3,1.34-.15,0.15-.41Q94.67,270.55,97.86,262.11Z" style="fill:none"/><path d="M162.45,188.69h0Z" style="fill:none"/><path d="M159.22,204.77l-3.84.67h0q1-.14,2-0.31T159.22,204.77Z" style="fill:#be202e"/><path d="M159.22,204.77l-3.84.67h0q1-.14,2-0.31T159.22,204.77Z" style="fill:#be202e;opacity:0.35000000000000003;mix-blend-mode:screen"/><path d="M162.48,188.68h0l0.62-.09c0.83-.12,1.64-0.26,2.44-0.44l-3,.52h0Z" style="fill:#be202e"/><path d="M162.48,188.68h0l0.62-.09c0.83-.12,1.64-0.26,2.44-0.44l-3,.52h0Z" style="fill:#be202e;opacity:0.35000000000000003;mix-blend-mode:screen"/><path d="M148.12,141.23q4.45-8.3,9-16.22,4.73-8.21,9.55-15.91l0.57-.91q4.77-7.56,9.63-14.51l-9.75-18.41L164.9,78c-2.81,3.5-5.73,7.27-8.73,11.27-3.38,4.51-6.85,9.31-10.37,14.36q-4.88,7-9.86,14.61-4.22,6.46-8.43,13.28l-0.31.51,12.69,25.07Q144,149,148.12,141.23Z" style="fill:url(#linear-gradient-2)"/><path d="M90.33,282.45q-2.52,6.92-5.06,14.12l-0.07.21-0.72,2c-1.14,3.24-2.13,6.15-4.4,12.78,3.74,1.71,6.74,6.19,9.58,11.28A20.46,20.46,0,0,0,83,308.81c18.43,0.83,34.31-3.83,42.51-17.3a34.82,34.82,0,0,0,2-3.81c-3.73,4.73-8.35,6.74-17.06,6.25l-0.06,0,0.06,0c12.82-5.74,19.25-11.24,24.94-20.37,1.35-2.16,2.66-4.53,4-7.15-11.21,11.51-24.2,14.79-37.88,12.3l-10.26,1.13Z" style="fill:url(#linear-gradient-3)"/><path d="M95.12,259.46q3.33-8.59,6.85-17.38,3.37-8.4,6.91-16.9t7.23-17q3.76-8.67,7.66-17.29T131.63,174q1.44-3,2.9-6,2.52-5.19,5.09-10.29l0.28-.55L127.2,132l-0.62,1q-4.44,7.24-8.79,14.81t-8.59,15.55q-3.54,6.66-6.92,13.44c-0.45.92-.9,1.83-1.34,2.73q-4.15,8.54-7.52,16.47-3.84,9-6.78,17.13-1.95,5.35-3.56,10.32-1.33,4.24-2.54,8.48-2.84,10-4.87,19.87L88.43,277q2.53-6.75,5.19-13.69Z" style="fill:url(#linear-gradient-4)"/><path d="M75.51,252.75A194.94,194.94,0,0,0,72.2,276.8c0,0.28,0,.56-0.06.84-4-6.37-14.64-12.6-14.61-12.54,7.63,11.06,13.42,22,14.28,32.81-4.08.84-9.68-.37-16.14-2.75,6.74,6.19,11.8,7.91,13.77,8.37-6.19.38-12.64,4.64-19.14,9.54,9.5-3.88,17.18-5.41,22.68-4.16-8.72,24.68-17.46,51.93-26.21,80.86a7.62,7.62,0,0,0,5.18-5c1.56-5.24,11.9-39.61,28.1-84.79l1.4-3.88L81.83,295q2.57-7.1,5.32-14.51l1.26-3.37,0-.07L75.69,251.86C75.63,252.16,75.56,252.45,75.51,252.75Z" style="fill:url(#linear-gradient-5)"/><path d="M141.86,159.2l-1.1,2.25q-1.65,3.4-3.34,6.94-1.83,3.84-3.69,7.85l-1.89,4.08q-2.84,6.19-5.77,12.79-3.6,8.11-7.32,16.86-3.55,8.34-7.19,17.27-3.46,8.48-7,17.5-3.16,8-6.38,16.54l-0.31.82q-3.19,8.44-6.44,17.33l-0.15.41,10.26-1.13-0.61-.1c12.27-1.53,28.58-10.69,39.12-22A97.45,97.45,0,0,0,153.39,238a161,161,0,0,0,8.6-17.88c2.37-5.75,4.65-12,6.85-18.72a37.17,37.17,0,0,1-9.61,3.33q-0.94.2-1.9,0.37t-2,.31h0c11.44-4.4,18.66-12.9,23.9-23.31a40.7,40.7,0,0,1-13.77,6c-0.8.18-1.61,0.32-2.44,0.44l-0.62.09h0A46.5,46.5,0,0,0,172.71,183q0.93-.71,1.81-1.46c0.89-.77,1.73-1.57,2.54-2.42q0.77-.81,1.5-1.68a40.52,40.52,0,0,0,3.2-4.41q0.46-.73.9-1.49,0.57-1.11,1.1-2.16c1.6-3.21,2.88-6.08,3.89-8.59q0.76-1.88,1.34-3.5,0.23-.65.43-1.25c0.41-1.21.73-2.28,1-3.23a31.06,31.06,0,0,0,.75-3.35h0a12.48,12.48,0,0,1-1.33.91c-3.45,2.07-9.38,3.94-14.15,4.82l9.42-1-9.42,1-0.21,0-1.44.23,0.25-.12L142,158.84Z" style="fill:url(#linear-gradient-6)"/><path d="M178.14,94c-2.86,4.4-6,9.4-9.37,15.05l-0.53.9q-4.36,7.35-9.25,16.17c-2.81,5.09-5.73,10.54-8.77,16.41q-4,7.67-8.19,16.27l32.23-3.53c9.39-4.32,13.59-8.22,17.66-13.88,1.08-1.55,2.17-3.19,3.25-4.87,3.31-5.17,6.56-10.86,9.46-16.52a170.22,170.22,0,0,0,7.17-15.76,81.18,81.18,0,0,0,2.84-8.53c0.59-2.24,1-4.36,1.41-6.38C203.52,91.5,188.14,93.55,178.14,94Z" style="fill:url(#linear-gradient-7)"/><path d="M157.32,205.14q-1,.17-2,0.31h0Q156.35,205.31,157.32,205.14Z" style="fill:#be202e"/><path d="M157.32,205.14q-1,.17-2,0.31h0Q156.35,205.31,157.32,205.14Z" style="fill:#be202e;opacity:0.35000000000000003;mix-blend-mode:screen"/><path d="M157.32,205.14q-1,.17-2,0.31h0Q156.35,205.31,157.32,205.14Z" style="fill:url(#linear-gradient-8)"/><path d="M162.45,188.69l0.62-.09-0.62.09h0Z" style="fill:#be202e"/><path d="M162.45,188.69l0.62-.09-0.62.09h0Z" style="fill:#be202e;opacity:0.35000000000000003;mix-blend-mode:screen"/><path d="M162.45,188.69l0.62-.09-0.62.09h0Z" style="fill:url(#linear-gradient-9)"/><path d="M162.47,188.68h0Z" style="fill:#be202e"/><path d="M162.47,188.68h0Z" style="fill:#be202e;opacity:0.35000000000000003;mix-blend-mode:screen"/><path d="M162.47,188.68h0Z" style="fill:url(#linear-gradient-10)"/><path d="M870.1,151.39v8.34H867.8v-8.34h-2.93v-2H873v2H870.1Z" style="fill:#b0afb0"/><path d="M884,153.22l-2.79,5.65H879.8L877,153.22v6.5h-2.31V149.4h3.12l2.66,5.68,2.68-5.68h3.1v10.33H884v-6.5Z" style="fill:#b0afb0"/><path d="M259.68,107.58v18.35h-2.36V107.58h-6.7v-2.27h15.8v2.27h-6.74Z" style="fill:#6d6e71"/><path d="M292.56,125.93v-9.07H280.14v9.07h-2.36V105.31h2.36v9.32h12.42v-9.32h2.36v20.62h-2.36Z" style="fill:#6d6e71"/><path d="M311.37,107.58v6.77h10.4v2.27h-10.4v7.06h12v2.24H309V105.31h14v2.27H311.37Z" style="fill:#6d6e71"/><path d="M245.47,358c-1.78,2.91-4.77,4.21-8.41,4.21-4.17,0-7-2.63-7-6.19s3-5.66,7.85-5.66h7.48v-2.06c0-3.56-2.1-5.7-6.31-5.7A11.43,11.43,0,0,0,232,345.3L231.24,344a13.22,13.22,0,0,1,8.13-3c5,0,7.69,2.75,7.73,7.12l0.08,14h-1.66Zm0-2.71v-3.44h-7.36c-4.13,0-6.39,1.42-6.39,4.13s2.14,4.69,5.58,4.69C241.23,360.63,244.18,358.93,245.47,355.25Z" style="fill:#6d6e71"/><path d="M284.59,351.61c0,6.15-4.21,10.56-10.15,10.56a9.5,9.5,0,0,1-8.94-5.54V370h-1.7V341h1.7v5.54a9.47,9.47,0,0,1,8.94-5.58C280.35,341,284.59,345.42,284.59,351.61Zm-1.66,0c0-5.22-3.64-9-8.74-9s-8.7,3.8-8.7,9,3.64,9,8.7,9S282.94,356.83,282.94,351.61Z" style="fill:#6d6e71"/><path d="M313,358c-1.78,2.91-4.77,4.21-8.41,4.21-4.17,0-7-2.63-7-6.19s3-5.66,7.85-5.66h7.48v-2.06c0-3.56-2.1-5.7-6.31-5.7a11.43,11.43,0,0,0-7.08,2.75L298.72,344a13.22,13.22,0,0,1,8.13-3c5,0,7.69,2.75,7.73,7.12l0.08,14H313Zm0-2.71v-3.44h-7.36c-4.13,0-6.39,1.42-6.39,4.13s2.14,4.69,5.58,4.69C308.71,360.63,311.66,358.93,313,355.25Z" style="fill:#6d6e71"/><path d="M346.65,344l-1,1.21a9.35,9.35,0,0,0-6.51-2.55c-5.06,0-8.7,3.68-8.7,8.94s3.64,9,8.7,9a8.79,8.79,0,0,0,6.88-3l1,1.09a10.17,10.17,0,0,1-7.93,3.44c-5.95,0-10.31-4.37-10.31-10.56s4.37-10.6,10.31-10.6A10.47,10.47,0,0,1,346.65,344Z" style="fill:#6d6e71"/><path d="M381.12,349.26v12.86h-1.7V349.58c0-4.33-2.55-6.88-6.88-6.88-5.22.12-8.25,3.6-8.25,9.1v10.32h-1.7v-30h1.7v14.44c1.42-3.56,4.41-5.46,8.66-5.54C378.09,341,381.12,344.12,381.12,349.26Z" style="fill:#6d6e71"/><path d="M415.35,352.05H396.94c0.24,5.14,3.8,8.58,8.7,8.58a9.5,9.5,0,0,0,7.12-2.91l1,1.09a10.92,10.92,0,0,1-8.17,3.36c-5.95,0-10.27-4.37-10.27-10.56s4.33-10.6,10.27-10.6C411.75,341,415.47,345.54,415.35,352.05Zm-1.54-1.5c-0.32-4.77-3.44-8-8.25-8a8.33,8.33,0,0,0-8.58,8h16.83Z" style="fill:#6d6e71"/><path d="M430.92,361a1.45,1.45,0,0,1-1.42,1.5,1.42,1.42,0,0,1-1.38-1.5,1.37,1.37,0,0,1,1.38-1.42A1.41,1.41,0,0,1,430.92,361Z" style="fill:#6d6e71"/><path d="M464.62,351.57c0,6.23-4.37,10.6-10.4,10.6s-10.4-4.37-10.4-10.6A10.14,10.14,0,0,1,454.23,341C460.25,341,464.62,345.42,464.62,351.57Zm-19.13,0c0,5.3,3.68,9,8.74,9s8.74-3.68,8.74-9-3.64-9-8.74-9S445.49,346.31,445.49,351.61Z" style="fill:#6d6e71"/><path d="M481.17,346.35A8.08,8.08,0,0,1,489,341v1.74c-4.65,0-7.48,3.07-7.85,8v11.41h-1.7V341h1.7v5.3Z" style="fill:#6d6e71"/><path d="M520,359.82C520,366,516,370,509.85,370a12.6,12.6,0,0,1-8.54-3.44l0.89-1.25a10.84,10.84,0,0,0,7.6,3.11c5.22,0,8.62-3.32,8.62-8.58v-4a9,9,0,0,1-8.62,5.42c-5.66,0-9.75-4.25-9.75-10.11S504.15,341,509.77,341a9.1,9.1,0,0,1,8.66,5.46V341H520v18.77Zm-1.62-8.62a8.27,8.27,0,0,0-8.41-8.66c-4.85,0-8.37,3.64-8.37,8.66s3.48,8.62,8.37,8.62A8.26,8.26,0,0,0,518.43,351.2Z" style="fill:#6d6e71"/></g></g></svg>