<?xml version="1.0" encoding="UTF-8" standalone="no"?>
<svg
   xmlns:dc="http://purl.org/dc/elements/1.1/"
   xmlns:cc="http://creativecommons.org/ns#"
   xmlns:rdf="http://www.w3.org/1999/02/22-rdf-syntax-ns#"
   xmlns:svg="http://www.w3.org/2000/svg"
   xmlns="http://www.w3.org/2000/svg"
   xmlns:sodipodi="http://sodipodi.sourceforge.net/DTD/sodipodi-0.dtd"
   xmlns:inkscape="http://www.inkscape.org/namespaces/inkscape"
   width="1792"
   height="1792"
   viewBox="0 0 1792 1792"
   version="1.1"
   id="svg817"
   sodipodi:docname="books.svg"
   inkscape:version="0.92.3 (2405546, 2018-03-11)">
  <metadata
     id="metadata823">
    <rdf:RDF>
      <cc:Work
         rdf:about="">
        <dc:format>image/svg+xml</dc:format>
        <dc:type
           rdf:resource="http://purl.org/dc/dcmitype/StillImage" />
        <dc:title />
      </cc:Work>
    </rdf:RDF>
  </metadata>
  <defs
     id="defs821" />
  <sodipodi:namedview
     pagecolor="#ffffff"
     bordercolor="#666666"
     borderopacity="1"
     objecttolerance="10"
     gridtolerance="10"
     guidetolerance="10"
     inkscape:pageopacity="0"
     inkscape:pageshadow="2"
     inkscape:window-width="1853"
     inkscape:window-height="1025"
     id="namedview819"
     showgrid="false"
     inkscape:zoom="0.16414979"
     inkscape:cx="-2431.569"
     inkscape:cy="740.16548"
     inkscape:window-x="67"
     inkscape:window-y="27"
     inkscape:window-maximized="1"
     inkscape:current-layer="svg817" />
  <g
     id="g976"
     transform="translate(8.7807208,7.8460099)"
     style="fill:#ffffff">
    <path
       inkscape:connector-curvature="0"
       id="path815-2"
       d="M 1621.7703,380.54658 1280.4539,1430.572 H 130.0984 c -0.58083,5.1079 -1.23386,10.5437 -2.02148,16.5821 -2,15.3333 -3,24.3333 -3,27 -14.66667,40 -14,82.3333 2,127 18.66667,52 51.83333,95.8333 99.5,131.5 47.66667,35.6666 97.16669,53.5 148.5,53.5 h 922.99998 c 43.3333,0 84.1667,-14.5 122.5,-43.5 38.3333,-29 63.8333,-64.8334 76.5,-107.5 l 275,-906.00012 c 14.6667,-48 8.6667,-91 -18,-129 -14,-18.6666 -33.6667,-33 -59,-43 1.3333,23.3334 -0.3333,42.3334 -5,57 l -300,987.00012 c -5.3333,17.3333 -17,31.1666 -35,41.5 -18,10.3333 -36.6667,15.5 -56,15.5 H 376.07692 c -79.99998,0 -128,-23.3334 -144,-70 -6.66667,-18 -6.33333,-32.3334 1,-43 7.33333,-10 20,-15 38,-15 h 868.99998 c 62,0 104.8333,-11.5 128.5,-34.5 23.6667,-23 47.5,-74.1667 71.5,-153.5 l 274,-906.00012 c 5.7889,-19.4719 8.3437,-38.005 7.6934,-55.6074 z"
       style="fill:#ffffff;fill-opacity:1" />
    <path
       inkscape:connector-curvature="0"
       style="fill:#ffffff"
       id="path815"
       d="m 1634.0769,340.15388 q 40,57 18,129 l -275,906.00002 q -19,64 -76.5,107.5 -57.5,43.5 -122.5,43.5 H 255.07692 q -77,0 -148.5,-53.5 -71.499997,-53.5 -99.4999968,-131.5 -24.0000002,-67 -2,-127 0,-4 3,-27 2.9999998,-23 3.9999998,-37 1,-8 -2.9999998,-21.5 -4,-13.5 -3,-19.5 2,-11 7.9999998,-21 6,-10 16.5,-23.5 10.5,-13.5 16.5,-23.5 23,-38 45,-91.50002 21.999997,-53.5 29.999997,-91.5 3,-10 0.5,-30 -2.5,-20 -0.5,-28 3,-11 17,-28 14,-17 17,-23 21,-36 42,-92 21,-56 25,-90 1,-9 -2.5,-32 -3.5,-23 0.5,-28 4,-13 22,-30.5 18,-17.5 22,-22.5 19,-26 42.5,-84.5 23.5,-58.5 27.5,-96.5 1,-8 -3,-25.5 -4,-17.5 -2,-26.5 2,-8 9,-18 7,-10 18,-23 11,-13 17,-21 8,-12 16.5,-30.5 8.5,-18.5 15,-35 6.5,-16.5 16,-36 9.5,-19.5 19.5,-32 10,-12.5 26.5,-23.4999998 16.5,-11 36,-11.5 19.5,-0.5 47.5,5.5 l -1,3.00000003 q 38,-9.00000003 51,-9.00000003 h 760.99998 q 74,0 114,55.9999998 40,56 18,130 l -274,906.00002 q -36,119 -71.5,153.5 -35.5,34.5 -128.5,34.5 H 151.07692 q -27,0 -38,15 -11,16 -1,43 24,70 144,70 h 922.99998 q 29,0 56,-15.5 27,-15.5 35,-41.5 l 300,-987.00002 q 7,-22 5,-57 38,15 59,43 z m -1063.99998,2 q -4,13 2,22.5 6,9.5 20,9.5 h 607.99998 q 13,0 25.5,-9.5 12.5,-9.5 16.5,-22.5 l 21,-64 q 4,-13 -2,-22.5 -6,-9.5 -20,-9.5 H 633.07692 q -13,0 -25.5,9.5 -12.5,9.5 -16.5,22.5 z m -83,256 q -4,13 2,22.5 6,9.5 20,9.5 h 607.99998 q 13,0 25.5,-9.5 12.5,-9.5 16.5,-22.5 l 21,-64 q 4,-13 -2,-22.5 -6,-9.5 -20,-9.5 H 550.07692 q -13,0 -25.5,9.5 -12.5,9.5 -16.5,22.5 z" />
  </g>
</svg>
