<?xml version="1.0" encoding="UTF-8" standalone="no"?>
<svg
   xmlns:dc="http://purl.org/dc/elements/1.1/"
   xmlns:cc="http://creativecommons.org/ns#"
   xmlns:rdf="http://www.w3.org/1999/02/22-rdf-syntax-ns#"
   xmlns:svg="http://www.w3.org/2000/svg"
   xmlns="http://www.w3.org/2000/svg"
   xmlns:sodipodi="http://sodipodi.sourceforge.net/DTD/sodipodi-0.dtd"
   xmlns:inkscape="http://www.inkscape.org/namespaces/inkscape"
   width="1792"
   height="1792"
   viewBox="0 0 1792 1792"
   version="1.1"
   id="svg4"
   sodipodi:docname="current-page.svg"
   inkscape:version="0.92.5 (2060ec1f9f, 2020-04-08)">
  <metadata
     id="metadata10">
    <rdf:RDF>
      <cc:Work
         rdf:about="">
        <dc:format>image/svg+xml</dc:format>
        <dc:type
           rdf:resource="http://purl.org/dc/dcmitype/StillImage" />
        <dc:title></dc:title>
      </cc:Work>
    </rdf:RDF>
  </metadata>
  <defs
     id="defs8" />
  <sodipodi:namedview
     pagecolor="#ffffff"
     bordercolor="#666666"
     borderopacity="1"
     objecttolerance="10"
     gridtolerance="10"
     guidetolerance="10"
     inkscape:pageopacity="0"
     inkscape:pageshadow="2"
     inkscape:window-width="1848"
     inkscape:window-height="1016"
     id="namedview6"
     showgrid="false"
     inkscape:zoom="0.13169643"
     inkscape:cx="-979.52541"
     inkscape:cy="865.62713"
     inkscape:window-x="1992"
     inkscape:window-y="912"
     inkscape:window-maximized="1"
     inkscape:current-layer="svg4" />
  <path
     d="m 1600,960 q 0,54 -37,91 l -651,651 q -39,37 -91,37 -51,0 -90,-37 l -75,-75 q -38,-38 -38,-91 0,-53 38,-91 L 949,1152 H 245 q -52,0 -84.5,-37.5 Q 128,1077 128,1024 V 896 q 0,-53 32.5,-90.5 Q 193,768 245,768 H 949 L 656,474 q -38,-36 -38,-90 0,-54 38,-90 l 75,-75 q 38,-38 90,-38 53,0 91,38 l 651,651 q 37,35 37,90 z"
     id="path2"
     style="fill:#13beb7;fill-opacity:1"
     inkscape:connector-curvature="0" />
</svg>
