<?xml version="1.0" encoding="UTF-8" standalone="no"?>
<!-- Created with Inkscape (http://www.inkscape.org/) -->

<svg
   xmlns:dc="http://purl.org/dc/elements/1.1/"
   xmlns:cc="http://creativecommons.org/ns#"
   xmlns:rdf="http://www.w3.org/1999/02/22-rdf-syntax-ns#"
   xmlns:svg="http://www.w3.org/2000/svg"
   xmlns="http://www.w3.org/2000/svg"
   xmlns:sodipodi="http://sodipodi.sourceforge.net/DTD/sodipodi-0.dtd"
   xmlns:inkscape="http://www.inkscape.org/namespaces/inkscape"
   width="100"
   height="100"
   viewBox="0 0 26.458333 26.458334"
   version="1.1"
   id="svg8"
   inkscape:version="0.92.5 (2060ec1f9f, 2020-04-08)"
   sodipodi:docname="home-logo-rudder.svg">
  <defs
     id="defs2" />
  <sodipodi:namedview
     id="base"
     pagecolor="#ffffff"
     bordercolor="#666666"
     borderopacity="1.0"
     inkscape:pageopacity="0.0"
     inkscape:pageshadow="2"
     inkscape:zoom="2.8"
     inkscape:cx="14.808103"
     inkscape:cy="29.482192"
     inkscape:document-units="mm"
     inkscape:current-layer="layer1"
     showgrid="false"
     units="px"
     inkscape:window-width="1848"
     inkscape:window-height="1016"
     inkscape:window-x="1992"
     inkscape:window-y="912"
     inkscape:window-maximized="1" />
  <metadata
     id="metadata5">
    <rdf:RDF>
      <cc:Work
         rdf:about="">
        <dc:format>image/svg+xml</dc:format>
        <dc:type
           rdf:resource="http://purl.org/dc/dcmitype/StillImage" />
        <dc:title />
      </cc:Work>
    </rdf:RDF>
  </metadata>
  <g
     inkscape:label="Calque 1"
     inkscape:groupmode="layer"
     id="layer1"
     transform="translate(0,-270.54165)">
    <path
       inkscape:connector-curvature="0"
       id="path16"
       style="fill:#13beb7;fill-opacity:1;fill-rule:nonzero;stroke:none;stroke-width:0.13631386"
       d="m 13.229713,270.99412 c -7.0659659,0 -12.7938737,5.72028 -12.7942829,12.77616 0,3.38862 1.348144,6.63889 3.7475408,9.03501 2.3992599,2.39613 5.6532081,3.74223 9.0467421,3.74223 3.392988,-3.9e-4 6.646936,-1.34651 9.046196,-3.74277 2.399396,-2.39613 3.746995,-5.64585 3.746995,-9.03447 -0.0053,-3.17244 -1.192746,-6.22941 -3.330556,-8.57605 l -8.348679,9.29442 c -0.255043,0.25654 -0.592147,0.38386 -0.928161,0.38386 -0.336013,0 -0.673527,-0.12732 -0.92857,-0.38386 -0.513358,-0.51227 -0.513358,-1.34297 0,-1.85578 l 9.306011,-8.33532 c -2.347189,-2.1209 -5.398165,-3.29811 -8.563236,-3.30343 z m -2.145308,4.6772 c 0.366821,0.81952 1.188384,1.39027 2.145852,1.39027 0.955697,0 1.777942,-0.57075 2.144763,-1.39027 0.735413,0.19493 1.429251,0.48719 2.071834,0.86055 -0.08301,0.21347 -0.128817,0.43716 -0.146401,0.66017 l -2.805066,2.43879 c -0.40199,-0.12404 -0.825926,-0.18907 -1.26513,-0.18907 -2.390263,0 -4.3349162,1.94084 -4.3349162,4.33015 0,2.38549 1.9446532,4.32797 4.3349162,4.32797 2.389174,0 4.334372,-1.94248 4.334372,-4.32797 0,-0.46115 -0.07402,-0.90362 -0.206651,-1.31952 l 2.391899,-2.74754 c 0.248092,-0.0101 0.492501,-0.057 0.728461,-0.14436 0.373772,0.63959 0.666575,1.33343 0.860958,2.06611 -0.819518,0.36846 -1.390809,1.18893 -1.390809,2.14531 0,0.95474 0.571291,1.77467 1.390809,2.14108 -0.194383,0.73474 -0.487186,1.42762 -0.860958,2.06761 -0.838739,-0.31638 -1.822244,-0.14108 -2.497951,0.53299 -0.676117,0.67625 -0.852371,1.65648 -0.533533,2.49577 -0.642583,0.37323 -1.336421,0.66603 -2.071834,0.85987 -0.366821,-0.81843 -1.189066,-1.38972 -2.144763,-1.38972 -0.957468,0 -1.779031,0.57129 -2.145852,1.38972 -0.735958,-0.19384 -1.4297961,-0.48664 -2.070335,-0.85987 0.3184292,-0.83929 0.1410849,-1.81952 -0.5357132,-2.49577 -0.6729816,-0.67407 -1.6575768,-0.84937 -2.4961797,-0.53299 -0.3754084,-0.63999 -0.6661659,-1.33287 -0.8625942,-2.06761 0.8199281,-0.36641 1.3919009,-1.18634 1.3919009,-2.14108 0,-0.95638 -0.5719728,-1.77685 -1.3919009,-2.14326 0.1964283,-0.73433 0.4871858,-1.42857 0.8625942,-2.06816 0.8386029,0.31639 1.8231981,0.14109 2.4961797,-0.53557 0.6767981,-0.67421 0.8541424,-1.65554 0.5357132,-2.49305 0.6405389,-0.37336 1.334377,-0.66562 2.070335,-0.86055 z" />
  </g>
</svg>
