<?xml version="1.0" encoding="UTF-8" standalone="no"?>
<!-- Created with Inkscape (http://www.inkscape.org/) -->

<svg
   xmlns:dc="http://purl.org/dc/elements/1.1/"
   xmlns:cc="http://creativecommons.org/ns#"
   xmlns:rdf="http://www.w3.org/1999/02/22-rdf-syntax-ns#"
   xmlns:svg="http://www.w3.org/2000/svg"
   xmlns="http://www.w3.org/2000/svg"
   xmlns:sodipodi="http://sodipodi.sourceforge.net/DTD/sodipodi-0.dtd"
   xmlns:inkscape="http://www.inkscape.org/namespaces/inkscape"
   width="100"
   height="100"
   viewBox="0 0 26.458333 26.458334"
   version="1.1"
   id="svg8"
   inkscape:version="0.92.3 (2405546, 2018-03-11)"
   sodipodi:docname="home-logo-rudder.svg">
  <defs
     id="defs2" />
  <sodipodi:namedview
     id="base"
     pagecolor="#ffffff"
     bordercolor="#666666"
     borderopacity="1.0"
     inkscape:pageopacity="0.0"
     inkscape:pageshadow="2"
     inkscape:zoom="3.959798"
     inkscape:cx="8.8727599"
     inkscape:cy="61.525822"
     inkscape:document-units="mm"
     inkscape:current-layer="layer1"
     showgrid="false"
     units="px"
     inkscape:window-width="1853"
     inkscape:window-height="1025"
     inkscape:window-x="67"
     inkscape:window-y="1107"
     inkscape:window-maximized="1" />
  <metadata
     id="metadata5">
    <rdf:RDF>
      <cc:Work
         rdf:about="">
        <dc:format>image/svg+xml</dc:format>
        <dc:type
           rdf:resource="http://purl.org/dc/dcmitype/StillImage" />
        <dc:title></dc:title>
      </cc:Work>
    </rdf:RDF>
  </metadata>
  <g
     inkscape:label="Calque 1"
     inkscape:groupmode="layer"
     id="layer1"
     transform="translate(0,-270.54165)">
    <g
       id="g984"
       transform="matrix(0.15700601,0,0,0.15700601,17.631684,248.2204)">
      <path
         d="m -15.639591,273.12274 c 4.251326,-1.12712 8.2627619,-2.8194 11.9725732,-4.98157 -1.8439695,-4.84929 -0.8187972,-10.53113 3.08539468,-14.43638 3.90242802,-3.90525 9.58708952,-4.92513 14.43496212,-3.08821 2.166056,-3.70699 3.859742,-7.71843 4.978753,-11.96693 -4.736395,-2.12478 -8.040864,-6.87352 -8.040864,-12.40226 0,-5.53296 3.304469,-10.27747 8.040864,-12.40508 -1.119011,-4.24427 -2.812697,-8.2557 -4.978753,-11.9641 -1.356078,0.51682 -2.778125,0.7814 -4.2114615,0.84596 l -13.8257147,15.89017 c 0.7704667,2.41018 1.1973278,4.97346 1.1973278,7.63305 0,13.81337 -11.2363256,25.05287 -25.0539266,25.05287 -13.811956,0 -25.050046,-11.2395 -25.050046,-25.05287 0,-13.81619 11.23809,-25.05145 25.050046,-25.05145 2.54247,0 4.996745,0.38311 7.307792,1.09713 L -4.5133317,188.1735 c 0.1005417,-1.29787 0.3735917,-2.58516 0.8463139,-3.82129 -3.7098113,-2.16606 -7.7212472,-3.85833 -11.9725732,-4.98158 -2.121958,4.7431 -6.873522,8.0451 -12.400845,8.0451 -5.528734,0 -10.277476,-3.302 -12.398376,-8.0451 -4.248503,1.12325 -8.26135,2.81552 -11.967987,4.98158 1.838326,4.84399 0.815623,10.53394 -3.089628,14.43919 -3.90278,3.90243 -9.587089,4.92654 -14.437784,3.08681 -2.164997,3.7084 -3.850217,7.71983 -4.978753,11.96834 4.740275,2.12337 8.040864,6.86788 8.040864,12.40084 0,5.53156 -3.300589,10.27748 -8.040864,12.40226 1.128536,4.2485 2.815167,8.25994 4.978753,11.96693 4.850695,-1.83692 10.539237,-0.81704 14.437784,3.08821 3.905251,3.90525 4.930423,9.58709 3.089628,14.43638 3.706637,2.16217 7.719484,3.85445 11.967987,4.98157 2.1209,-4.7431 6.869642,-8.04368 12.398376,-8.04368 5.527323,0 10.278887,3.30058 12.400845,8.04368"
         style="fill:#979797;fill-opacity:1;fill-rule:nonzero;stroke:none;stroke-width:0.03527778"
         id="path930"
         inkscape:connector-curvature="0" />
      <path
         d="m -32.397947,219.66174 c -2.966862,2.96545 -2.966862,7.77487 0,10.74032 1.481666,1.48272 3.421944,2.22285 5.368925,2.22285 1.940278,0 3.889022,-0.74013 5.367514,-2.22285 l 54.223006,-61.9813 c 0.822678,-0.82268 0.822678,-2.15653 0,-2.98062 -0.824089,-0.82268 -2.159353,-0.82268 -2.980619,0 l -61.978826,54.2216"
         style="fill:#515257;fill-opacity:1;fill-rule:nonzero;stroke:none;stroke-width:0.03527778"
         id="path932"
         inkscape:connector-curvature="0" />
      <path
         d="m -99.725943,214.39759 8.448675,8.73689 c 1.73355,-33.4257 29.381099,-59.99304 63.235421,-59.99304 14.345356,0 27.57170166,4.77626 38.191019,12.81571 L 23.439017,164.55396 C 9.4820692,152.93699 -8.459857,145.94352 -28.041847,145.94352 c -43.461872,0 -78.858253,34.4357 -80.442863,77.51058 l 8.758767,-9.05651"
         style="fill:#81cc2b;fill-opacity:1;fill-rule:nonzero;stroke:none;stroke-width:0.03527778"
         id="path934"
         inkscape:connector-curvature="0" />
      <path
         d="m -40.107906,298.14915 8.735484,-8.44867 c -30.423205,-1.57657 -55.15187,-24.62566 -59.349573,-54.28228 l -9.003948,-9.30874 -8.407367,8.69279 c 4.07212,39.57038 36.800335,70.62718 77.084738,72.10849 l -9.059334,-8.76159"
         style="fill:#4f94d6;fill-opacity:1;fill-rule:nonzero;stroke:none;stroke-width:0.03527778"
         id="path936"
         inkscape:connector-curvature="0" />
      <path
         d="m 35.196396,229.79704 c -1.577975,30.4218 -24.629888,55.15081 -54.283684,59.35099 l -9.307337,9.00112 8.692798,8.40881 c 39.571791,-4.0707 70.621529,-36.79754 72.105666,-77.08195 l -17.207443,0.32103"
         style="fill:#f25c19;fill-opacity:1;fill-rule:nonzero;stroke:none;stroke-width:0.03527778"
         id="path938"
         inkscape:connector-curvature="0" />
    </g>
  </g>
</svg>
