<?xml version="1.0" encoding="UTF-8" standalone="no"?>
<!-- Created with Inkscape (http://www.inkscape.org/) -->

<svg
   xmlns:dc="http://purl.org/dc/elements/1.1/"
   xmlns:cc="http://creativecommons.org/ns#"
   xmlns:rdf="http://www.w3.org/1999/02/22-rdf-syntax-ns#"
   xmlns:svg="http://www.w3.org/2000/svg"
   xmlns="http://www.w3.org/2000/svg"
   xmlns:sodipodi="http://sodipodi.sourceforge.net/DTD/sodipodi-0.dtd"
   xmlns:inkscape="http://www.inkscape.org/namespaces/inkscape"
   width="60"
   height="60"
   viewBox="0 0 15.875 15.875"
   version="1.1"
   id="svg8"
   inkscape:version="0.92.5 (2060ec1f9f, 2020-04-08)"
   sodipodi:docname="list-icon-community-3.svg">
  <defs
     id="defs2" />
  <sodipodi:namedview
     id="base"
     pagecolor="#ffffff"
     bordercolor="#666666"
     borderopacity="1.0"
     inkscape:pageopacity="0.0"
     inkscape:pageshadow="2"
     inkscape:zoom="5.6"
     inkscape:cx="21.354607"
     inkscape:cy="27.742056"
     inkscape:document-units="mm"
     inkscape:current-layer="layer1"
     showgrid="false"
     units="px"
     inkscape:window-width="1848"
     inkscape:window-height="1016"
     inkscape:window-x="1992"
     inkscape:window-y="912"
     inkscape:window-maximized="1" />
  <metadata
     id="metadata5">
    <rdf:RDF>
      <cc:Work
         rdf:about="">
        <dc:format>image/svg+xml</dc:format>
        <dc:type
           rdf:resource="http://purl.org/dc/dcmitype/StillImage" />
        <dc:title />
      </cc:Work>
    </rdf:RDF>
  </metadata>
  <g
     inkscape:label="Calque 1"
     inkscape:groupmode="layer"
     id="layer1"
     transform="translate(0,-281.12498)">
    <path
       style="color:#000000;font-style:normal;font-variant:normal;font-weight:normal;font-stretch:normal;font-size:medium;line-height:normal;font-family:sans-serif;font-variant-ligatures:normal;font-variant-position:normal;font-variant-caps:normal;font-variant-numeric:normal;font-variant-alternates:normal;font-feature-settings:normal;text-indent:0;text-align:start;text-decoration:none;text-decoration-line:none;text-decoration-style:solid;text-decoration-color:#000000;letter-spacing:normal;word-spacing:normal;text-transform:none;writing-mode:lr-tb;direction:ltr;text-orientation:mixed;dominant-baseline:auto;baseline-shift:baseline;text-anchor:start;white-space:normal;shape-padding:0;clip-rule:nonzero;display:inline;overflow:visible;visibility:visible;opacity:1;isolation:auto;mix-blend-mode:normal;color-interpolation:sRGB;color-interpolation-filters:linearRGB;solid-color:#000000;solid-opacity:1;vector-effect:none;fill:#586579;fill-opacity:1;fill-rule:nonzero;stroke:none;stroke-width:1.88976383;stroke-linecap:butt;stroke-linejoin:miter;stroke-miterlimit:4;stroke-dasharray:none;stroke-dashoffset:0;stroke-opacity:1;color-rendering:auto;image-rendering:auto;shape-rendering:auto;text-rendering:auto;enable-background:accumulate"
       d="M 30 0.31054688 C 13.613214 0.31054688 0.31054688 13.613216 0.31054688 30 C 0.31054688 46.386784 13.613214 59.689453 30 59.689453 C 46.386784 59.689453 59.689453 46.386784 59.689453 30 C 59.689453 13.613216 46.386784 0.31054688 30 0.31054688 z M 30 2.1992188 C 45.36548 2.1992188 57.800781 14.63452 57.800781 30 C 57.800781 45.36548 45.36548 57.800781 30 57.800781 C 14.634519 57.800781 2.1992188 45.36548 2.1992188 30 C 2.1992188 14.63452 14.634519 2.1992188 30 2.1992188 z M 30 15.380859 C 26.416554 15.380859 23.195886 17.247648 20.966797 20.203125 C 21.45061 21.394016 22.17109 22.487488 23.107422 23.423828 C 24.948257 25.264647 27.396592 26.277344 30 26.277344 C 32.603408 26.277344 35.04979 25.264647 36.890625 23.423828 C 37.826956 22.487488 38.54939 21.393941 39.033203 20.203125 C 36.804113 17.247648 33.583446 15.380859 30 15.380859 z M 17.050781 18.433594 C 16.466168 18.482147 15.914134 18.8111 15.605469 19.361328 C 15.111681 20.241542 15.426577 21.353899 16.306641 21.847656 C 16.401896 21.900948 16.498062 21.945697 16.597656 21.980469 C 16.812076 22.457785 17.156641 23.071597 17.630859 23.46875 C 17.949443 23.735963 18.29888 24.010409 18.787109 24.28125 C 18.23926 25.823826 17.905814 27.502941 17.832031 29.263672 C 16.992478 29.27879 16.414539 29.422345 15.892578 29.576172 C 15.575823 29.669526 15.268663 29.834398 14.992188 30.021484 C 14.919545 30.013925 14.846485 30.007812 14.771484 30.007812 C 13.762208 30.007812 12.943359 30.824699 12.943359 31.833984 C 12.943359 32.843269 13.762208 33.662109 14.771484 33.662109 C 15.756014 33.662109 16.558899 32.883208 16.597656 31.908203 C 16.981874 31.795195 17.349674 31.705959 17.898438 31.697266 C 18.139583 34.211105 18.912451 36.530247 20.078125 38.490234 C 18.999482 39.328269 18.334262 40.243059 18.050781 41.255859 C 18.050781 41.255859 17.993711 41.289454 17.908203 41.359375 C 17.833429 41.419847 17.761711 41.486468 17.695312 41.560547 C 17.020304 42.310934 17.081642 43.465677 17.832031 44.140625 C 18.582345 44.815611 19.737101 44.754218 20.412109 44.003906 C 21.027878 43.319547 21.028967 42.299643 20.455078 41.613281 C 20.68914 41.189785 20.930046 40.927435 21.496094 40.474609 C 23.55584 42.884852 26.32381 44.435921 29.390625 44.617188 L 29.390625 27.476562 C 25.337667 27.254359 21.869402 24.832334 20.164062 21.382812 C 20.032716 21.597868 19.906679 21.817079 19.785156 22.041016 C 19.562361 21.900795 19.380036 21.756523 19.195312 21.601562 C 19.10615 21.526728 18.970826 21.299838 18.849609 21.041016 C 19.261543 20.179548 18.938559 19.134071 18.09375 18.660156 C 17.763641 18.475026 17.401549 18.404462 17.050781 18.433594 z M 42.949219 18.435547 C 42.598441 18.406406 42.236359 18.476979 41.90625 18.662109 C 41.061442 19.1361 40.738456 20.181501 41.150391 21.042969 C 41.029181 21.301866 40.893884 21.526879 40.804688 21.601562 C 40.619982 21.756523 40.437654 21.902748 40.214844 22.042969 C 40.093332 21.818843 39.965247 21.60001 39.833984 21.384766 C 38.128915 24.835096 34.662928 27.256317 30.609375 27.478516 L 30.609375 44.621094 C 33.67619 44.439676 36.443932 42.886881 38.503906 40.476562 C 39.069955 40.929388 39.310856 41.193691 39.544922 41.617188 C 38.971031 42.30355 38.972126 43.323378 39.587891 44.007812 C 40.262824 44.7582 41.417578 44.817677 42.167969 44.142578 C 42.918284 43.467706 42.979704 42.312963 42.304688 41.5625 C 42.238281 41.488799 42.166632 41.423754 42.091797 41.363281 C 42.006304 41.292604 41.949219 41.259766 41.949219 41.259766 C 41.665679 40.24689 41.000518 39.3321 39.921875 38.494141 C 41.087625 36.534229 41.860417 34.213058 42.101562 31.699219 C 42.650327 31.706778 43.018125 31.799102 43.402344 31.912109 C 43.441122 32.88719 44.243986 33.664062 45.228516 33.664062 C 46.237793 33.664062 47.056641 32.847176 47.056641 31.837891 C 47.056641 30.828606 46.237789 30.009766 45.228516 30.009766 L 45.228516 30.007812 C 45.15353 30.007812 45.080455 30.012099 45.007812 30.023438 C 44.73134 29.836351 44.424177 29.671479 44.107422 29.578125 C 43.585537 29.424298 43.007598 29.279168 42.167969 29.263672 C 42.094192 27.502866 41.758788 25.82578 41.210938 24.283203 C 41.699169 24.012211 42.050632 23.737765 42.369141 23.470703 C 42.843358 23.07355 43.185899 22.459738 43.400391 21.982422 C 43.499981 21.948406 43.598115 21.902901 43.693359 21.849609 C 44.573422 21.355852 44.888319 20.241467 44.394531 19.361328 C 44.085914 18.811147 43.533848 18.484116 42.949219 18.435547 z "
       transform="matrix(0.26458333,0,0,0.26458333,0,281.12498)"
       id="path815" />
    <flowRoot
       xml:space="preserve"
       id="flowRoot908"
       style="fill:black;fill-opacity:1;stroke:none;font-family:sans-serif;font-style:normal;font-weight:normal;font-size:40px;line-height:1.25;letter-spacing:0px;word-spacing:0px"><flowRegion
         id="flowRegion910"><rect
           id="rect912"
           width="165.71428"
           height="44.285713"
           x="-106.42857"
           y="-42.857143" /></flowRegion><flowPara
         id="flowPara914" /></flowRoot>  </g>
</svg>
