<?xml version="1.0" encoding="UTF-8" standalone="no"?>
<!-- Created with Inkscape (http://www.inkscape.org/) -->

<svg
   xmlns:dc="http://purl.org/dc/elements/1.1/"
   xmlns:cc="http://creativecommons.org/ns#"
   xmlns:rdf="http://www.w3.org/1999/02/22-rdf-syntax-ns#"
   xmlns:svg="http://www.w3.org/2000/svg"
   xmlns="http://www.w3.org/2000/svg"
   xmlns:sodipodi="http://sodipodi.sourceforge.net/DTD/sodipodi-0.dtd"
   xmlns:inkscape="http://www.inkscape.org/namespaces/inkscape"
   width="60"
   height="60"
   viewBox="0 0 15.875 15.875"
   version="1.1"
   id="svg8"
   inkscape:version="0.92.5 (2060ec1f9f, 2020-04-08)"
   sodipodi:docname="list-icon-community-2.svg">
  <defs
     id="defs2" />
  <sodipodi:namedview
     id="base"
     pagecolor="#ffffff"
     bordercolor="#666666"
     borderopacity="1.0"
     inkscape:pageopacity="0.0"
     inkscape:pageshadow="2"
     inkscape:zoom="5.6"
     inkscape:cx="-12.063567"
     inkscape:cy="17.944998"
     inkscape:document-units="mm"
     inkscape:current-layer="layer1"
     showgrid="false"
     units="px"
     inkscape:window-width="1848"
     inkscape:window-height="1016"
     inkscape:window-x="1992"
     inkscape:window-y="912"
     inkscape:window-maximized="1" />
  <metadata
     id="metadata5">
    <rdf:RDF>
      <cc:Work
         rdf:about="">
        <dc:format>image/svg+xml</dc:format>
        <dc:type
           rdf:resource="http://purl.org/dc/dcmitype/StillImage" />
        <dc:title />
      </cc:Work>
    </rdf:RDF>
  </metadata>
  <g
     inkscape:label="Calque 1"
     inkscape:groupmode="layer"
     id="layer1"
     transform="translate(0,-281.12498)">
    <path
       style="color:#000000;font-style:normal;font-variant:normal;font-weight:normal;font-stretch:normal;font-size:medium;line-height:normal;font-family:sans-serif;font-variant-ligatures:normal;font-variant-position:normal;font-variant-caps:normal;font-variant-numeric:normal;font-variant-alternates:normal;font-feature-settings:normal;text-indent:0;text-align:start;text-decoration:none;text-decoration-line:none;text-decoration-style:solid;text-decoration-color:#000000;letter-spacing:normal;word-spacing:normal;text-transform:none;writing-mode:lr-tb;direction:ltr;text-orientation:mixed;dominant-baseline:auto;baseline-shift:baseline;text-anchor:start;white-space:normal;shape-padding:0;clip-rule:nonzero;display:inline;overflow:visible;visibility:visible;opacity:1;isolation:auto;mix-blend-mode:normal;color-interpolation:sRGB;color-interpolation-filters:linearRGB;solid-color:#000000;solid-opacity:1;vector-effect:none;fill:#586579;fill-opacity:1;fill-rule:nonzero;stroke:none;stroke-width:1.88976383;stroke-linecap:butt;stroke-linejoin:miter;stroke-miterlimit:4;stroke-dasharray:none;stroke-dashoffset:0;stroke-opacity:1;color-rendering:auto;image-rendering:auto;shape-rendering:auto;text-rendering:auto;enable-background:accumulate"
       d="M 30 0.31054688 C 13.613214 0.31054688 0.31054688 13.613216 0.31054688 30 C 0.31054688 46.386784 13.613214 59.689453 30 59.689453 C 46.386784 59.689453 59.689453 46.386784 59.689453 30 C 59.689453 13.613216 46.386784 0.31054688 30 0.31054688 z M 30 2.1992188 C 45.36548 2.1992188 57.800781 14.63452 57.800781 30 C 57.800781 45.36548 45.36548 57.800781 30 57.800781 C 14.634519 57.800781 2.1992188 45.36548 2.1992188 30 C 2.1992188 14.63452 14.634519 2.1992188 30 2.1992188 z M 29.986328 14.365234 C 21.345537 14.365234 14.351903 21.115643 14.378906 29.441406 C 14.378906 32.43868 15.287373 35.238676 16.853516 37.587891 C 16.916521 37.677899 16.988964 37.768179 17.042969 37.867188 C 17.231986 38.191215 17.339844 38.568807 17.339844 38.964844 L 15.810547 45.607422 L 21.984375 43.285156 C 22.263401 43.168146 22.570502 43.105469 22.894531 43.105469 C 23.182557 43.105469 23.469445 43.158805 23.730469 43.257812 C 23.730469 43.266813 23.739046 43.267578 23.748047 43.267578 C 23.793051 43.28558 23.829995 43.304264 23.875 43.322266 C 24.568063 43.601291 25.288512 43.816842 26.017578 44.005859 C 27.286695 44.329889 28.609202 44.517578 29.986328 44.517578 C 38.627119 44.517578 45.621094 37.767168 45.621094 29.441406 C 45.621094 28.379309 45.503129 27.354561 45.287109 26.355469 C 43.810974 19.514843 37.520018 14.365234 29.986328 14.365234 z M 30.115234 20.441406 C 31.839485 20.441406 33.199713 20.756877 34.40625 21.673828 C 35.520652 22.520593 36.113281 23.710122 36.113281 25.320312 C 36.113281 26.307487 35.767261 27.14074 35.271484 27.816406 C 34.981915 28.228828 34.326305 28.750071 33.505859 29.390625 L 32.597656 30.019531 C 32.158915 30.361767 31.879161 30.760495 31.734375 31.216797 C 31.659786 31.45812 31.607381 32.098819 31.589844 32.515625 C 31.585459 32.594617 31.531816 32.787109 31.277344 32.787109 L 28.566406 32.787109 C 28.276857 32.787109 28.245616 32.616731 28.25 32.533203 C 28.289487 31.388082 28.461226 30.431358 28.939453 29.667969 C 29.580015 28.641298 31.400391 27.558594 31.400391 27.558594 C 31.676797 27.347998 31.895777 27.128482 32.0625 26.882812 C 32.365233 26.466046 32.621094 26.004089 32.621094 25.503906 C 32.621094 24.924769 32.47987 24.382084 32.111328 23.925781 C 31.676975 23.390562 31.217297 23.130859 30.322266 23.130859 C 29.440397 23.130859 28.927135 23.578588 28.558594 24.162109 C 28.190052 24.745631 28.25 25.424855 28.25 26.056641 L 24.880859 26.056641 C 24.880859 23.691828 25.495287 22.197286 26.802734 21.306641 C 27.688991 20.709929 28.807787 20.441406 30.115234 20.441406 z M 29.882812 34.533203 C 31.067413 34.568315 31.935502 35.411687 31.900391 36.644531 C 31.865291 37.877413 30.948272 38.639484 29.763672 38.605469 C 28.622946 38.570357 27.732466 37.758713 27.767578 36.521484 C 27.807065 35.288602 28.746475 34.499187 29.882812 34.533203 z "
       transform="matrix(0.26458333,0,0,0.26458333,0,281.12498)"
       id="path815" />
    <g
       id="g846"
       transform="matrix(-0.08275965,0,0,0.08275965,6.8429716,266.99745)"
       style="fill:#555555;fill-opacity:1">
      <g
         transform="matrix(0.26458333,0,0,0.26458333,-89.994355,207.95824)"
         id="g821"
         style="fill:#555555;fill-opacity:1" />
    </g>
    <flowRoot
       xml:space="preserve"
       id="flowRoot908"
       style="fill:black;fill-opacity:1;stroke:none;font-family:sans-serif;font-style:normal;font-weight:normal;font-size:40px;line-height:1.25;letter-spacing:0px;word-spacing:0px"><flowRegion
         id="flowRegion910"><rect
           id="rect912"
           width="165.71428"
           height="44.285713"
           x="-106.42857"
           y="-42.857143" /></flowRegion><flowPara
         id="flowPara914" /></flowRoot>    <g
       id="g948"
       transform="matrix(0.01063058,0,0,0.01063058,69.241402,297.5041)">
      <path
         id="path942"
         d="M 374.64,127.327 C 345.365,88.512 303.062,64 256,64 c -47.062,0 -89.365,24.512 -118.64,63.327 6.354,15.64 15.833,30 28.13,42.297 24.176,24.176 56.319,37.49 90.51,37.49 34.191,0 66.334,-13.314 90.51,-37.49 12.297,-12.297 21.776,-26.658 28.13,-42.297 z"
         inkscape:connector-curvature="0" />
      <path
         id="path944"
         d="m 126.836,142.824 c -1.725,2.827 -3.396,5.703 -4.992,8.644 -2.926,-1.84 -5.319,-3.74 -7.745,-5.773 -1.171,-0.981 -2.954,-3.949 -4.546,-7.35 5.41,-11.314 1.181,-25.037 -9.914,-31.261 -11.561,-6.484 -26.188,-2.372 -32.674,9.189 -6.485,11.56 -2.371,26.188 9.187,32.673 1.251,0.702 2.539,1.272 3.847,1.729 2.816,6.269 7.32,14.331 13.548,19.547 4.184,3.507 8.792,7.117 15.204,10.674 -7.195,20.259 -11.576,42.303 -12.545,65.427 -11.026,0.207 -18.619,2.1 -25.474,4.122 -4.16,1.227 -8.192,3.395 -11.823,5.852 -0.954,-0.115 -1.923,-0.182 -2.908,-0.182 -13.255,0 -24,10.745 -24,24 0,13.255 10.745,24 24,24 12.93,0 23.467,-10.227 23.976,-23.032 5.046,-1.482 9.888,-2.659 17.095,-2.774 3.167,33.015 13.304,63.483 28.613,89.224 -14.166,11.006 -22.882,23.016 -26.605,36.317 0,0 -0.75,0.438 -1.873,1.366 -0.982,0.794 -1.932,1.65 -2.804,2.619 -8.865,9.855 -8.062,25.031 1.793,33.895 9.854,8.865 25.028,8.062 33.893,-1.793 8.087,-8.988 8.095,-22.381 0.558,-31.395 3.074,-5.562 6.236,-9.014 13.67,-14.961 C 171.368,425.235 207.723,445.619 248,448 V 222.872 c -53.236,-2.918 -98.771,-34.734 -121.164,-80.048 z"
         inkscape:connector-curvature="0" />
      <path
         id="path946"
         d="m 456,256.114 c -0.985,0 -1.954,0.066 -2.908,0.182 -3.631,-2.457 -7.663,-4.625 -11.823,-5.852 -6.854,-2.021 -14.447,-3.915 -25.474,-4.122 -0.969,-23.125 -5.35,-45.168 -12.545,-65.427 6.412,-3.557 11.021,-7.167 15.204,-10.674 6.228,-5.216 10.731,-13.278 13.548,-19.547 1.308,-0.458 2.596,-1.028 3.847,-1.729 11.558,-6.485 15.672,-21.114 9.187,-32.673 -6.485,-11.561 -21.113,-15.673 -32.674,-9.189 -11.095,6.225 -15.324,19.947 -9.914,31.261 -1.592,3.401 -3.375,6.369 -4.546,7.35 -2.426,2.033 -4.819,3.933 -7.745,5.773 -1.596,-2.941 -3.268,-5.817 -4.992,-8.644 -22.393,45.314 -67.928,77.13 -121.164,80.048 V 448 c 40.277,-2.381 76.632,-22.765 103.686,-54.42 7.434,5.947 10.596,9.399 13.67,14.961 -7.537,9.014 -7.529,22.406 0.558,31.395 8.864,9.855 24.038,10.658 33.893,1.793 9.854,-8.863 10.658,-24.039 1.793,-33.895 -0.872,-0.969 -1.821,-1.825 -2.804,-2.619 -1.123,-0.929 -1.873,-1.366 -1.873,-1.366 -3.724,-13.302 -12.439,-25.312 -26.605,-36.317 15.31,-25.74 25.446,-56.209 28.613,-89.224 7.207,0.115 12.049,1.292 17.095,2.774 0.509,12.806 11.046,23.032 23.976,23.032 13.255,0 24,-10.745 24,-24 0,-13.255 -10.748,-24 -24.003,-24 z"
         inkscape:connector-curvature="0" />
    </g>
  </g>
</svg>
