<?xml version="1.0" encoding="UTF-8" standalone="no"?>
<!-- Created with Inkscape (http://www.inkscape.org/) -->

<svg
   xmlns:dc="http://purl.org/dc/elements/1.1/"
   xmlns:cc="http://creativecommons.org/ns#"
   xmlns:rdf="http://www.w3.org/1999/02/22-rdf-syntax-ns#"
   xmlns:svg="http://www.w3.org/2000/svg"
   xmlns="http://www.w3.org/2000/svg"
   xmlns:sodipodi="http://sodipodi.sourceforge.net/DTD/sodipodi-0.dtd"
   xmlns:inkscape="http://www.inkscape.org/namespaces/inkscape"
   width="60"
   height="60"
   viewBox="0 0 15.875 15.875"
   version="1.1"
   id="svg8"
   inkscape:version="0.92.5 (2060ec1f9f, 2020-04-08)"
   sodipodi:docname="list-icon-use-rudder.svg">
  <defs
     id="defs2" />
  <sodipodi:namedview
     id="base"
     pagecolor="#ffffff"
     bordercolor="#666666"
     borderopacity="1.0"
     inkscape:pageopacity="0.0"
     inkscape:pageshadow="2"
     inkscape:zoom="3.959798"
     inkscape:cx="18.639883"
     inkscape:cy="8.5294593"
     inkscape:document-units="mm"
     inkscape:current-layer="layer1"
     showgrid="false"
     units="px"
     inkscape:window-width="1848"
     inkscape:window-height="1016"
     inkscape:window-x="1992"
     inkscape:window-y="912"
     inkscape:window-maximized="1" />
  <metadata
     id="metadata5">
    <rdf:RDF>
      <cc:Work
         rdf:about="">
        <dc:format>image/svg+xml</dc:format>
        <dc:type
           rdf:resource="http://purl.org/dc/dcmitype/StillImage" />
        <dc:title />
      </cc:Work>
    </rdf:RDF>
  </metadata>
  <g
     inkscape:label="Calque 1"
     inkscape:groupmode="layer"
     id="layer1"
     transform="translate(0,-281.12498)">
    <flowRoot
       xml:space="preserve"
       id="flowRoot908"
       style="fill:black;fill-opacity:1;stroke:none;font-family:sans-serif;font-style:normal;font-weight:normal;font-size:40px;line-height:1.25;letter-spacing:0px;word-spacing:0px"><flowRegion
         id="flowRegion910"><rect
           id="rect912"
           width="165.71428"
           height="44.285713"
           x="-106.42857"
           y="-42.857143" /></flowRegion><flowPara
         id="flowPara914" /></flowRoot>    <g
       id="g843">
      <path
         id="path815"
         transform="matrix(0.26458333,0,0,0.26458333,0,281.12498)"
         d="M 30 0.31054688 C 13.613214 0.31054688 0.31054688 13.613216 0.31054688 30 C 0.31054688 46.386784 13.613214 59.689453 30 59.689453 C 46.386784 59.689453 59.689453 46.386784 59.689453 30 C 59.689453 13.613216 46.386784 0.31054688 30 0.31054688 z M 30 2.1992188 C 45.36548 2.1992188 57.800781 14.63452 57.800781 30 C 57.800781 45.36548 45.36548 57.800781 30 57.800781 C 14.634519 57.800781 2.1992188 45.36548 2.1992188 30 C 2.1992188 14.63452 14.634519 2.1992188 30 2.1992188 z M 20.296875 13.328125 C 19.205459 13.328125 18.210938 14.173162 18.210938 15.34375 L 18.210938 44.847656 C 18.210938 46.027071 19.205459 47.126953 20.296875 47.126953 L 41.695312 47.126953 C 42.786731 47.126953 43.560547 46.027071 43.560547 44.847656 L 43.560547 23.361328 C 43.560547 23.044617 43.52565 22.815842 43.455078 22.525391 C 43.393466 22.270337 43.278492 22.086223 43.146484 21.927734 L 35.779297 13.857422 C 35.612075 13.672452 35.419264 13.583192 35.199219 13.46875 C 34.943969 13.337009 34.661549 13.328125 34.371094 13.328125 L 20.296875 13.328125 z M 21.029297 16.154297 L 32.382812 16.154297 L 32.382812 23.345703 C 32.382812 24.648342 33.561609 25.835938 34.855469 25.835938 L 40.744141 25.835938 L 40.744141 44.320312 L 21.029297 44.320312 L 21.029297 16.154297 z M 35.199219 17.429688 L 40.304688 23.019531 L 35.199219 23.019531 L 35.199219 17.429688 z "
         style="color:#000000;font-style:normal;font-variant:normal;font-weight:normal;font-stretch:normal;font-size:medium;line-height:normal;font-family:sans-serif;font-variant-ligatures:normal;font-variant-position:normal;font-variant-caps:normal;font-variant-numeric:normal;font-variant-alternates:normal;font-feature-settings:normal;text-indent:0;text-align:start;text-decoration:none;text-decoration-line:none;text-decoration-style:solid;text-decoration-color:#000000;letter-spacing:normal;word-spacing:normal;text-transform:none;writing-mode:lr-tb;direction:ltr;text-orientation:mixed;dominant-baseline:auto;baseline-shift:baseline;text-anchor:start;white-space:normal;shape-padding:0;clip-rule:nonzero;display:inline;overflow:visible;visibility:visible;opacity:1;isolation:auto;mix-blend-mode:normal;color-interpolation:sRGB;color-interpolation-filters:linearRGB;solid-color:#000000;solid-opacity:1;vector-effect:none;fill:#586579;fill-opacity:1;fill-rule:nonzero;stroke:none;stroke-width:1.88976383;stroke-linecap:butt;stroke-linejoin:miter;stroke-miterlimit:4;stroke-dasharray:none;stroke-dashoffset:0;stroke-opacity:1;color-rendering:auto;image-rendering:auto;shape-rendering:auto;text-rendering:auto;enable-background:accumulate" />
      <g
         transform="matrix(1.1736186,0,0,1.1736186,-1.418813,-50.197088)"
         id="g1167">
        <rect
           style="opacity:1;fill:#9ea7b5;fill-opacity:1;stroke:none;stroke-width:0.01543577;stroke-miterlimit:4;stroke-dasharray:none;stroke-opacity:1"
           id="rect1518"
           width="3.3401678"
           height="0.35006124"
           x="6.5092177"
           y="291.43817"
           ry="0.17503062" />
        <rect
           style="opacity:1;fill:#9ea7b5;fill-opacity:1;stroke:none;stroke-width:0.0137973;stroke-miterlimit:4;stroke-dasharray:none;stroke-opacity:1"
           id="rect1518-9"
           width="2.6562698"
           height="0.35169968"
           x="6.5083985"
           y="290.50873"
           ry="0.17584984" />
        <rect
           style="opacity:1;fill:#9ea7b5;fill-opacity:1;stroke:none;stroke-width:0.01496761;stroke-miterlimit:4;stroke-dasharray:none;stroke-opacity:1"
           id="rect1518-3"
           width="3.1364336"
           height="0.3505294"
           x="6.5089836"
           y="289.58069"
           ry="0.1752647" />
        <rect
           style="opacity:1;fill:#9ea7b5;fill-opacity:1;stroke:none;stroke-width:0.01421088;stroke-miterlimit:4;stroke-dasharray:none;stroke-opacity:1"
           id="rect1518-9-6"
           width="2.8212209"
           height="0.35128608"
           x="6.5086055"
           y="288.6517"
           ry="0.17564304" />
      </g>
    </g>
  </g>
</svg>
