<?xml version="1.0" encoding="UTF-8" standalone="no"?>
<!-- Created with Inkscape (http://www.inkscape.org/) -->

<svg
   xmlns:dc="http://purl.org/dc/elements/1.1/"
   xmlns:cc="http://creativecommons.org/ns#"
   xmlns:rdf="http://www.w3.org/1999/02/22-rdf-syntax-ns#"
   xmlns:svg="http://www.w3.org/2000/svg"
   xmlns="http://www.w3.org/2000/svg"
   xmlns:sodipodi="http://sodipodi.sourceforge.net/DTD/sodipodi-0.dtd"
   xmlns:inkscape="http://www.inkscape.org/namespaces/inkscape"
   width="60"
   height="60"
   viewBox="0 0 15.875 15.875"
   version="1.1"
   id="svg8"
   inkscape:version="0.92.3 (2405546, 2018-03-11)"
   sodipodi:docname="list-icon-community-1.svg">
  <defs
     id="defs2" />
  <sodipodi:namedview
     id="base"
     pagecolor="#ffffff"
     bordercolor="#666666"
     borderopacity="1.0"
     inkscape:pageopacity="0.0"
     inkscape:pageshadow="2"
     inkscape:zoom="3.959798"
     inkscape:cx="-2.4232971"
     inkscape:cy="-1.9621702"
     inkscape:document-units="mm"
     inkscape:current-layer="layer1"
     showgrid="false"
     units="px"
     inkscape:window-width="1853"
     inkscape:window-height="1025"
     inkscape:window-x="67"
     inkscape:window-y="27"
     inkscape:window-maximized="1" />
  <metadata
     id="metadata5">
    <rdf:RDF>
      <cc:Work
         rdf:about="">
        <dc:format>image/svg+xml</dc:format>
        <dc:type
           rdf:resource="http://purl.org/dc/dcmitype/StillImage" />
        <dc:title></dc:title>
      </cc:Work>
    </rdf:RDF>
  </metadata>
  <g
     inkscape:label="Calque 1"
     inkscape:groupmode="layer"
     id="layer1"
     transform="translate(0,-281.12498)">
    <circle
       style="opacity:1;fill:none;fill-opacity:1;stroke:#555555;stroke-width:0.5;stroke-miterlimit:4;stroke-dasharray:none;stroke-opacity:1"
       id="path815"
       cx="7.9375"
       cy="289.06247"
       r="7.6057873" />
    <g
       id="g846"
       transform="matrix(0.08275965,0,0,0.08275965,10.135893,265.97383)"
       style="fill:#555555;fill-opacity:1">
      <g
         transform="matrix(0.26458333,0,0,0.26458333,-89.994355,207.95824)"
         id="g821"
         style="fill:#555555;fill-opacity:1">
	<path
   inkscape:connector-curvature="0"
   d="m 73.3,391 c 0,0 0,0 0,0 1.8,3 2.8,6.4 2.8,10.2 L 64,464 120.2,441.9 c 2.7,-1.1 5.6,-1.7 8.7,-1.7 2.8,0 5.5,0.5 8,1.4 0,0 0.1,0 0.2,0 0.4,0.2 0.8,0.3 1.2,0.5 17.8,7.3 37.4,11.4 57.9,11.4 46.3,0 87.6,-20.5 114.8,-52.6 -14.1,3.6 -28.9,5.7 -44.1,5.7 -95.9,0 -173.7,-75 -173.7,-167.5 0,-11.8 1.3,-23.2 3.7,-34.3 -30,26.1 -48.9,63.8 -48.9,105.8 0,28.4 8.6,55.2 23.5,77.5 0.6,0.8 1.2,1.9 1.8,2.9 z"
   id="path817"
   style="fill:#555555;fill-opacity:1;stroke:#555555;stroke-opacity:1" />

	<path
   inkscape:connector-curvature="0"
   d="m 290.3,48 c -83.7,0 -153.6,57.2 -170,133.2 -2.4,11.1 -3.7,22.5 -3.7,34.3 0,92.5 77.7,167.5 173.7,167.5 15.3,0 30,-2.1 44.1,-5.7 8.1,-2.1 16.1,-4.5 23.8,-7.6 0.5,-0.2 0.9,-0.4 1.4,-0.6 0.1,0 0.2,0 0.2,-0.1 2.9,-1.1 6.1,-1.7 9.3,-1.7 3.6,0 7,0.7 10.1,2 l 68.6,25.8 -17,-73.8 c 0,-4.4 1.2,-8.6 3.3,-12.2 0,0 0,0 0,0 0.6,-1.1 1.4,-2.1 2.1,-3.1 17.4,-26.1 27.5,-57.2 27.5,-90.5 C 464,123 386.3,48 290.3,48 Z"
   id="path819"
   style="fill:#555555;fill-opacity:1;stroke:#555555;stroke-opacity:1" />

</g>
    </g>
  </g>
</svg>
