<?xml version="1.0" encoding="UTF-8" standalone="no"?>
<svg
   xmlns:dc="http://purl.org/dc/elements/1.1/"
   xmlns:cc="http://creativecommons.org/ns#"
   xmlns:rdf="http://www.w3.org/1999/02/22-rdf-syntax-ns#"
   xmlns:svg="http://www.w3.org/2000/svg"
   xmlns="http://www.w3.org/2000/svg"
   xmlns:sodipodi="http://sodipodi.sourceforge.net/DTD/sodipodi-0.dtd"
   xmlns:inkscape="http://www.inkscape.org/namespaces/inkscape"
   viewBox="0 0 223 50"
   height="50"
   width="223"
   xml:space="preserve"
   id="svg2"
   version="1.1"
   sodipodi:docname="logo-rudder-documentation.svg"
   inkscape:version="0.92.3 (2405546, 2018-03-11)"><sodipodi:namedview
     pagecolor="#ffffff"
     bordercolor="#666666"
     borderopacity="1"
     objecttolerance="10"
     gridtolerance="10"
     guidetolerance="10"
     inkscape:pageopacity="0"
     inkscape:pageshadow="2"
     inkscape:window-width="1920"
     inkscape:window-height="1052"
     id="namedview24"
     showgrid="false"
     inkscape:zoom="2.1345291"
     inkscape:cx="111.5"
     inkscape:cy="25"
     inkscape:window-x="120"
     inkscape:window-y="0"
     inkscape:window-maximized="1"
     inkscape:current-layer="svg2" /><metadata
     id="metadata8"><rdf:RDF><cc:Work
         rdf:about=""><dc:format>image/svg+xml</dc:format><dc:type
           rdf:resource="http://purl.org/dc/dcmitype/StillImage" /><dc:title /></cc:Work></rdf:RDF></metadata><defs
     id="defs6" /><g
     transform="matrix(1.3333333,0,0,-1.3333333,0,49.999997)"
     id="g10"><g
   transform="matrix(0.45634381,0,0,0.45634381,21.110695,-30.43041)"
   id="g892"><g
     id="g852"><path
       d="m -9.830406,98.839737 c 1.6679,0.441 3.2418,1.1051 4.6988,1.953103 -0.723,1.9063 -0.3238,4.1332 1.2109,5.668 1.5313,1.5313 3.7622,1.9301 5.6641,1.2109 0.8481,1.4532 1.5121,3.0274 1.9531,4.6954 -1.859,0.832 -3.1558,2.6949 -3.1558,4.8628 0,2.1719 1.2968,4.036 3.1558,4.8719 -0.441,1.6641 -1.105,3.2379 -1.9531,4.691 -0.5348,-0.1988 -1.0898,-0.305 -1.6519,-0.3281 l -5.4258,-6.2379 c 0.3008,-0.9461 0.4687,-1.95 0.4687,-2.9969 0,-5.4179 -4.4109,-9.8281 -9.8289,-9.8281 -5.4211,0 -9.832,4.4102 -9.832,9.8281 0,5.4258 4.4109,9.8321 9.832,9.8321 0.9961,0 1.957,-0.1481 2.868,-0.4289 l 6.3629,5.5386 c 0.039,0.5082 0.1441,1.0153 0.332,1.5 -1.457,0.8481 -3.0309,1.5122 -4.6988,1.9532 -0.8321,-1.859 -2.6961,-3.1559 -4.8641,-3.1559 -2.1711,0 -4.0351,1.2969 -4.8672,3.1559 -1.6679,-0.441 -3.2418,-1.1051 -4.6949,-1.9532 0.7231,-1.9019 0.3199,-4.1328 -1.2148,-5.6636 -1.527,-1.5352 -3.7582,-1.934 -5.6602,-1.2153 -0.8519,-1.4531 -1.5117,-3.0269 -1.957,-4.6949 1.859,-0.832 3.1562,-2.6961 3.1562,-4.868 0,-2.1679 -1.2972,-4.0308 -3.1562,-4.8628 0.4453,-1.668 1.1051,-3.2422 1.957,-4.6954 1.902,0.7192 4.1332,0.3204 5.6602,-1.2109 1.5347,-1.5348 1.9379,-3.7617 1.2148,-5.668 1.4531,-0.848003 3.027,-1.512103 4.6949,-1.953103 0.8321,1.859403 2.6961,3.156303 4.8672,3.156303 2.168,0 4.032,-1.2969 4.8641,-3.156303"
       style="fill:#ffffff;fill-opacity:1;fill-rule:nonzero;stroke:none;stroke-width:0.1"
       id="path28" /><path
       d="m -16.405406,119.81594 c -1.1641,-1.1641 -1.1641,-3.05 0,-4.2141 0.5789,-0.582 1.3437,-0.8719 2.1058,-0.8719 0.7621,0 1.527,0.2899 2.1051,0.8719 l 21.2781,24.3199 c 0.32,0.3243 0.32,0.8481 0,1.1723 -0.3242,0.3199 -0.848,0.3199 -1.1722,0 l -24.3168,-21.2781"
       style="fill:#ffffff;fill-opacity:1;fill-rule:nonzero;stroke:none;stroke-width:0.1"
       id="path30" /><path
       d="m -42.822616,121.88314 3.31211,-3.4301 c 0.68398,13.1168 11.5309,23.5391 24.8121,23.5391 5.6289,0 10.8207,-1.8711 14.9891,-5.0274 l 5.2148,4.4762 c -5.4808,4.559 -12.5199,7.3012 -20.2039,7.3012 -17.05,0 -30.941006,-13.5122 -31.5621,-30.4141 l 3.43789,3.5551"
       style="fill:#ffffff;fill-opacity:1;fill-rule:nonzero;stroke:none;stroke-width:0.1"
       id="path32" /><path
       d="m -19.432406,89.019827 3.4297,3.31602 c -11.9379,0.61718 -21.64061,9.664093 -23.28866,21.297293 l -3.53125,3.6519 -3.296874,-3.4101 c 1.592964,-15.527003 14.437084,-27.710972 30.241784,-28.293003 l -3.5547,3.43789"
       style="fill:#ffffff;fill-opacity:1;fill-rule:nonzero;stroke:none;stroke-width:0.1"
       id="path34" /><path
       d="m 10.114494,115.83974 c -0.6172,-11.9379 -9.6602,-21.640613 -21.2969,-23.288663 l -3.6519,-3.53125 3.4097,-3.296874 c 15.527,1.592964 27.711,14.437087 28.293,30.241787 l -6.7539,-0.125"
       style="fill:#ffffff;fill-opacity:1;fill-rule:nonzero;stroke:none;stroke-width:0.1"
       id="path36" /></g><g
     id="g873"><g
   id="g861"><path
     id="path14"
     style="fill:#ffffff;fill-opacity:1;fill-rule:nonzero;stroke:none;stroke-width:0.1"
     d="m 62.805494,117.27294 c 2.465,0 4.426,0.5899 5.887,1.7699 1.457,1.1801 2.188,2.777 2.188,4.7969 v 0.1133 c 0,2.1367 -0.715,3.7539 -2.133,4.859 -1.418,1.1019 -3.422,1.6527 -6,1.6527 h -10.035 v -13.1918 z m -16.914,19.3988 h 17.442 c 2.457,0 4.636,-0.3476 6.539,-1.0347 1.902,-0.6922 3.484,-1.6492 4.75,-2.875 1.043,-1.0821 1.844,-2.3321 2.402,-3.75 0.563,-1.4141 0.844,-2.9813 0.844,-4.6961 v -0.109 c 0,-1.6051 -0.234,-3.0469 -0.699,-4.332 -0.469,-1.2852 -1.114,-2.4219 -1.934,-3.4102 -0.816,-0.9879 -1.797,-1.8277 -2.93,-2.5156 -1.136,-0.691 -2.394,-1.2192 -3.777,-1.5942 l 10.566,-14.812103 h -8.105 l -9.645,13.641103 h -8.632 V 97.542837 h -6.821 v 39.128903" /><path
     id="path16"
     style="fill:#ffffff;fill-opacity:1;fill-rule:nonzero;stroke:none;stroke-width:0.1"
     d="m 109.05549,96.929937 c -2.535,0 -4.828,0.359 -6.875,1.086 -2.05,0.7301 -3.799996,1.8199 -5.252996,3.273003 -1.454,1.4532 -2.571,3.25 -3.356,5.395 -0.781,2.1402 -1.172,4.6281 -1.172,7.4601 v 22.5277 h 6.817 v -22.2457 c 0,-3.6531 0.881996,-6.43 2.643996,-8.332 1.762,-1.8992 4.195,-2.848 7.309,-2.848 3.074,0 5.488,0.9097 7.25,2.7379 1.761,1.825 2.644,4.5468 2.644,8.1601 v 22.5277 h 6.821 v -22.1918 c 0,-2.9058 -0.403,-5.4601 -1.204,-7.6601 -0.804,-2.1988 -1.929,-4.0309 -3.382,-5.5039 -1.454,-1.471903 -3.215,-2.569903 -5.282,-3.300003 -2.07,-0.727 -4.386,-1.086 -6.961,-1.086" /><path
     id="path18"
     style="fill:#ffffff;fill-opacity:1;fill-rule:nonzero;stroke:none;stroke-width:0.1"
     d="m 156.56749,103.74994 c 2.051,0 3.914,0.3242 5.59,0.98 1.68,0.6532 3.105,1.5711 4.277,2.75 1.176,1.1801 2.086,2.5821 2.739,4.211 0.652,1.625 0.98,3.3949 0.98,5.3051 v 0.1129 c 0,1.907 -0.328,3.6839 -0.98,5.3281 -0.653,1.6488 -1.563,3.059 -2.739,4.239 -1.172,1.1829 -2.597,2.1047 -4.277,2.7809 -1.676,0.6719 -3.539,1.0078 -5.59,1.0078 h -7.711 v -26.7148 z m -14.531,32.9218 h 14.59 c 3.054,0 5.859,-0.4918 8.414,-1.4808 2.551,-0.9879 4.75,-2.359 6.594,-4.109 1.843,-1.75 3.269,-3.809 4.277,-6.1801 1.004,-2.3629 1.508,-4.925 1.508,-7.6828 v -0.1101 c 0,-2.761 -0.504,-5.3321 -1.508,-7.718 -1.008,-2.3828 -2.434,-4.4539 -4.277,-6.2039 -1.844,-1.75 -4.043,-3.1281 -6.594,-4.136003 -2.555,-1.0043 -5.36,-1.5082 -8.414,-1.5082 h -14.59 v 39.128903" /><path
     id="path20"
     style="fill:#ffffff;fill-opacity:1;fill-rule:nonzero;stroke:none;stroke-width:0.1"
     d="m 206.98949,103.74994 c 2.051,0 3.914,0.3242 5.59,0.98 1.68,0.6532 3.105,1.5711 4.277,2.75 1.172,1.1801 2.086,2.5821 2.738,4.211 0.653,1.625 0.981,3.3949 0.981,5.3051 v 0.1129 c 0,1.907 -0.328,3.6839 -0.981,5.3281 -0.652,1.6488 -1.566,3.059 -2.738,4.239 -1.172,1.1829 -2.597,2.1047 -4.277,2.7809 -1.676,0.6719 -3.539,1.0078 -5.59,1.0078 h -7.711 v -26.7148 z m -14.531,32.9218 h 14.586 c 3.058,0 5.863,-0.4918 8.414,-1.4808 2.551,-0.9879 4.754,-2.359 6.597,-4.109 1.844,-1.75 3.27,-3.809 4.274,-6.1801 1.008,-2.3629 1.512,-4.925 1.512,-7.6828 v -0.1101 c 0,-2.761 -0.504,-5.3321 -1.512,-7.718 -1.004,-2.3828 -2.43,-4.4539 -4.274,-6.2039 -1.843,-1.75 -4.046,-3.1281 -6.597,-4.136003 -2.551,-1.0043 -5.356,-1.5082 -8.414,-1.5082 h -14.586 v 39.128903" /><path
     id="path22"
     style="fill:#ffffff;fill-opacity:1;fill-rule:nonzero;stroke:none;stroke-width:0.1"
     d="m 303.95049,117.27294 c 2.465,0 4.43,0.5899 5.887,1.7699 1.457,1.1801 2.187,2.777 2.187,4.7969 v 0.1133 c 0,2.1367 -0.711,3.7539 -2.133,4.859 -1.418,1.1019 -3.418,1.6527 -6,1.6527 h -10.035 v -13.1918 z m -16.914,19.3988 h 17.441 c 2.457,0 4.641,-0.3476 6.539,-1.0347 1.903,-0.6922 3.485,-1.6492 4.75,-2.875 1.043,-1.0821 1.844,-2.3321 2.407,-3.75 0.558,-1.4141 0.836,-2.9813 0.836,-4.6961 v -0.109 c 0,-1.6051 -0.231,-3.0469 -0.696,-4.332 -0.469,-1.2852 -1.109,-2.4219 -1.933,-3.4102 -0.817,-0.9879 -1.797,-1.8277 -2.93,-2.5156 -1.141,-0.691 -2.399,-1.2192 -3.773,-1.5942 l 10.562,-14.812103 h -8.105 l -9.645,13.641103 h -8.633 V 97.542837 h -6.82 v 39.128903" /><path
     id="path24"
     style="fill:#ffffff;fill-opacity:1;fill-rule:nonzero;stroke:none;stroke-width:0.1"
     d="m 249.69649,130.46474 h 22.137 v 6.207 h -28.957 v -6.207 h 6.82" /><path
     id="path26"
     style="fill:#ffffff;fill-opacity:1;fill-rule:nonzero;stroke:none;stroke-width:0.1"
     d="m 249.69649,103.74994 v 10.4492 h 19.621 v 6.2066 h -26.441 V 97.542837 h 29.234 v 6.207103 h -22.414" /></g><path
   inkscape:connector-curvature="0"
   id="path834"
   style="font-style:normal;font-variant:normal;font-weight:bold;font-stretch:normal;font-size:medium;line-height:1.25;font-family:'Century Gothic';-inkscape-font-specification:'Century Gothic Bold';letter-spacing:0.76704746px;word-spacing:0px;fill:#ffffff;fill-opacity:1;stroke:none;stroke-width:0.66417122"
   d="m 87.979752,86.360812 h 4.306735 q 4.164042,0 6.187689,-1.037767 2.023644,-1.024796 3.333824,-3.3468 1.31019,-2.322005 1.31019,-5.422336 0,-2.205256 -0.73941,-4.060265 -0.72644,-1.842038 -2.02365,-3.061414 -1.284238,-1.219377 -2.789001,-1.686373 -1.504763,-0.466995 -5.214781,-0.466995 h -4.371596 z m 3.619214,-3.502465 V 70.833216 h 1.686372 q 2.490642,0 3.606243,0.570772 1.128572,0.570772 1.842037,1.91987 0.713465,1.349098 0.713465,3.320856 0,3.03547 -1.699344,4.70887 -1.530707,1.504763 -4.916424,1.504763 z" /><path
   inkscape:connector-curvature="0"
   id="path836"
   style="font-style:normal;font-variant:normal;font-weight:bold;font-stretch:normal;font-size:medium;line-height:1.25;font-family:'Century Gothic';-inkscape-font-specification:'Century Gothic Bold';letter-spacing:0.76704746px;word-spacing:0px;fill:#ffffff;fill-opacity:1;stroke:none;stroke-width:0.66417122"
   d="m 116.37736,86.84078 q 4.04729,0 6.95304,-2.931693 2.91872,-2.931694 2.91872,-7.147624 0,-4.177015 -2.8798,-7.069791 -2.86683,-2.892777 -6.96601,-2.892777 -4.29377,0 -7.13466,2.970609 -2.84089,2.97061 -2.84089,7.056819 0,2.737112 1.32316,5.033173 1.32315,2.29606 3.63218,3.632186 2.32201,1.349098 4.99426,1.349098 z m -0.0389,-3.554354 q -2.6463,0 -4.44942,-1.842037 -1.80312,-1.842038 -1.80312,-4.682926 0,-3.165191 2.27011,-5.007229 1.76421,-1.439902 4.0473,-1.439902 2.58144,0 4.39753,1.867982 1.8161,1.867981 1.8161,4.605093 0,2.72414 -1.82907,4.605093 -1.82906,1.893926 -4.44943,1.893926 z" /><path
   inkscape:connector-curvature="0"
   id="path838"
   style="font-style:normal;font-variant:normal;font-weight:bold;font-stretch:normal;font-size:medium;line-height:1.25;font-family:'Century Gothic';-inkscape-font-specification:'Century Gothic Bold';letter-spacing:0.76704746px;word-spacing:0px;fill:#ffffff;fill-opacity:1;stroke:none;stroke-width:0.66417122"
   d="m 147.97908,83.00104 -2.54253,-2.425782 q -2.59442,2.737112 -5.83745,2.737112 -2.73711,0 -4.61806,-1.867981 -1.86798,-1.867982 -1.86798,-4.605094 0,-1.906897 0.83021,-3.385716 0.83021,-1.478819 2.34795,-2.322005 1.51773,-0.843186 3.37274,-0.843186 1.5826,0 2.89278,0.583744 1.31018,0.596716 2.87981,2.153368 l 2.46469,-2.568475 q -2.11445,-2.062563 -3.9954,-2.866833 -1.88095,-0.791297 -4.29376,-0.791297 -4.44943,0 -7.29032,2.814944 -2.82792,2.827916 -2.82792,7.238428 0,2.853861 1.28424,5.072089 1.29721,2.218228 3.69705,3.567326 2.41281,1.349098 5.18883,1.349098 2.36093,0 4.54024,-0.998851 2.19228,-0.998852 3.77488,-2.840889 z" /><path
   inkscape:connector-curvature="0"
   id="path840"
   style="font-style:normal;font-variant:normal;font-weight:bold;font-stretch:normal;font-size:medium;line-height:1.25;font-family:'Century Gothic';-inkscape-font-specification:'Century Gothic Bold';letter-spacing:0.76704746px;word-spacing:0px;fill:#ffffff;fill-opacity:1;stroke:none;stroke-width:0.66417122"
   d="m 151.78159,86.360812 h 3.64516 V 74.011379 q 0,-1.595568 0.27242,-2.257145 0.28538,-0.661576 0.92101,-1.063711 0.64861,-0.389163 1.55666,-0.389163 0.95993,0 1.64745,0.441051 0.70049,0.441051 0.95994,1.1156 0.27241,0.687521 0.27241,2.607391 v 11.89541 h 3.64516 V 74.984286 q 0,-2.879805 -0.3243,-3.995405 -0.32431,-1.1156 -1.24532,-2.153368 -0.90805,-1.037767 -2.10148,-1.543679 -1.19344,-0.492939 -2.77603,-0.492939 -2.07554,0 -3.61922,0.946962 -1.5307,0.959935 -2.19228,2.386866 -0.66158,1.439902 -0.66158,4.851563 z" /><path
   inkscape:connector-curvature="0"
   id="path842"
   style="font-style:normal;font-variant:normal;font-weight:bold;font-stretch:normal;font-size:medium;line-height:1.25;font-family:'Century Gothic';-inkscape-font-specification:'Century Gothic Bold';letter-spacing:0.76704746px;word-spacing:0px;fill:#ffffff;fill-opacity:1;stroke:none;stroke-width:0.66417122"
   d="m 171.53979,86.360812 h 3.55435 l 4.41052,-13.309368 4.47537,13.309368 h 3.50246 l 3.21708,-19.08195 h -3.50246 l -2.04959,12.051075 -4.06027,-12.051075 h -3.20411 l -4.00837,12.051075 -2.08851,-12.051075 h -3.54138 z" /><path
   inkscape:connector-curvature="0"
   id="path844"
   style="font-style:normal;font-variant:normal;font-weight:bold;font-stretch:normal;font-size:medium;line-height:1.25;font-family:'Century Gothic';-inkscape-font-specification:'Century Gothic Bold';letter-spacing:0.76704746px;word-spacing:0px;fill:#ffffff;fill-opacity:1;stroke:none;stroke-width:0.66417122"
   d="m 194.39831,86.360812 h 10.41659 v -3.554353 h -6.81035 v -3.450577 h 6.81035 v -3.489494 h -6.81035 v -5.0202 h 6.81035 v -3.567326 h -10.41659 z" /><path
   inkscape:connector-curvature="0"
   id="path846"
   style="font-style:normal;font-variant:normal;font-weight:bold;font-stretch:normal;font-size:medium;line-height:1.25;font-family:'Century Gothic';-inkscape-font-specification:'Century Gothic Bold';letter-spacing:0.76704746px;word-spacing:0px;fill:#ffffff;fill-opacity:1;stroke:none;stroke-width:0.66417122"
   d="m 208.96767,86.360812 h 3.47652 l 8.18539,-12.556987 v 12.556987 h 3.63219 v -19.08195 h -3.4895 l -8.17242,12.518071 V 67.278862 h -3.63218 z" /><path
   inkscape:connector-curvature="0"
   id="path848"
   style="font-style:normal;font-variant:normal;font-weight:bold;font-stretch:normal;font-size:medium;line-height:1.25;font-family:'Century Gothic';-inkscape-font-specification:'Century Gothic Bold';letter-spacing:0.76704746px;word-spacing:0px;fill:#ffffff;fill-opacity:1;stroke:none;stroke-width:0.66417122"
   d="m 227.50648,86.360812 h 10.54631 v -3.580298 h -3.47652 V 67.278862 h -3.68407 v 15.501652 h -3.38572 z" /><path
   inkscape:connector-curvature="0"
   id="path850"
   style="font-style:normal;font-variant:normal;font-weight:bold;font-stretch:normal;font-size:medium;line-height:1.25;font-family:'Century Gothic';-inkscape-font-specification:'Century Gothic Bold';letter-spacing:0.76704746px;word-spacing:0px;fill:#ffffff;fill-opacity:1;stroke:none;stroke-width:0.66417122"
   d="m 247.12198,86.360812 h 3.68408 l 7.3422,-19.08195 h -3.77488 l -1.49179,3.930545 h -7.78325 l -1.55666,-3.930545 h -3.77488 z m 1.86798,-5.059116 -2.54253,-6.550908 h 5.07209 z" /><path
   inkscape:connector-curvature="0"
   id="path852"
   style="font-style:normal;font-variant:normal;font-weight:bold;font-stretch:normal;font-size:medium;line-height:1.25;font-family:'Century Gothic';-inkscape-font-specification:'Century Gothic Bold';letter-spacing:0.76704746px;word-spacing:0px;fill:#ffffff;fill-opacity:1;stroke:none;stroke-width:0.66417122"
   d="m 259.86227,86.360812 h 10.54631 v -3.580298 h -3.47652 V 67.278862 h -3.68407 v 15.501652 h -3.38572 z" /><path
   inkscape:connector-curvature="0"
   id="path854"
   style="font-style:normal;font-variant:normal;font-weight:bold;font-stretch:normal;font-size:medium;line-height:1.25;font-family:'Century Gothic';-inkscape-font-specification:'Century Gothic Bold';letter-spacing:0.76704746px;word-spacing:0px;fill:#ffffff;fill-opacity:1;stroke:none;stroke-width:0.66417122"
   d="m 273.40683,86.360812 h 3.60624 v -19.08195 h -3.60624 z" /><path
   inkscape:connector-curvature="0"
   id="path856"
   style="font-style:normal;font-variant:normal;font-weight:bold;font-stretch:normal;font-size:medium;line-height:1.25;font-family:'Century Gothic';-inkscape-font-specification:'Century Gothic Bold';letter-spacing:0.76704746px;word-spacing:0px;fill:#ffffff;fill-opacity:1;stroke:none;stroke-width:0.66417122"
   d="m 290.86897,86.84078 q 4.04729,0 6.95304,-2.931693 2.91872,-2.931694 2.91872,-7.147624 0,-4.177015 -2.8798,-7.069791 -2.86684,-2.892777 -6.96602,-2.892777 -4.29376,0 -7.13465,2.970609 -2.84089,2.97061 -2.84089,7.056819 0,2.737112 1.32315,5.033173 1.32316,2.29606 3.63219,3.632186 2.32201,1.349098 4.99426,1.349098 z m -0.0389,-3.554354 q -2.64631,0 -4.44943,-1.842037 -1.80312,-1.842038 -1.80312,-4.682926 0,-3.165191 2.27012,-5.007229 1.7642,-1.439902 4.04729,-1.439902 2.58145,0 4.39754,1.867982 1.81609,1.867981 1.81609,4.605093 0,2.72414 -1.82906,4.605093 -1.82907,1.893926 -4.44943,1.893926 z" /><path
   inkscape:connector-curvature="0"
   id="path858"
   style="font-style:normal;font-variant:normal;font-weight:bold;font-stretch:normal;font-size:medium;line-height:1.25;font-family:'Century Gothic';-inkscape-font-specification:'Century Gothic Bold';letter-spacing:0.76704746px;word-spacing:0px;fill:#ffffff;fill-opacity:1;stroke:none;stroke-width:0.66417122"
   d="m 304.94539,86.360812 h 3.47652 l 8.18539,-12.556987 v 12.556987 h 3.63219 v -19.08195 h -3.4895 l -8.17241,12.518071 V 67.278862 h -3.63219 z" />
</g></g>
</g></svg>