<?xml version="1.0" encoding="UTF-8" standalone="no"?>
<svg
   xmlns:dc="http://purl.org/dc/elements/1.1/"
   xmlns:cc="http://creativecommons.org/ns#"
   xmlns:rdf="http://www.w3.org/1999/02/22-rdf-syntax-ns#"
   xmlns:svg="http://www.w3.org/2000/svg"
   xmlns="http://www.w3.org/2000/svg"
   viewBox="0 0 308 313"
   height="313"
   width="308"
   id="svg2"
   version="1.1">
  <metadata
     id="metadata8">
    <rdf:RDF>
      <cc:Work
         rdf:about="">
        <dc:format>image/svg+xml</dc:format>
        <dc:type
           rdf:resource="http://purl.org/dc/dcmitype/StillImage" />
        <dc:title></dc:title>
      </cc:Work>
    </rdf:RDF>
  </metadata>
  <defs
     id="defs6" />
  <path
     id="path817"
     d="m 135.30807,50.772916 a 86.870766,86.870766 0 0 0 -86.869134,86.871094 86.870766,86.870766 0 0 0 86.869134,86.8711 86.870766,86.870766 0 0 0 46.29493,-13.48243 l 5.82617,5.82618 12.72656,12.72656 29.67969,29.67969 c 3.9493,3.9493 10.30851,3.9493 14.25781,0 l 12.50586,-12.50586 c 3.9493,-3.94931 3.9493,-10.30851 0,-14.25782 l -29.68164,-29.67968 -12.74414,-12.74414 -5.66797,-5.66797 a 86.870766,86.870766 0 0 0 13.67383,-46.76563 86.870766,86.870766 0 0 0 -86.8711,-86.871094 z m 0,29.841797 a 57.029667,57.029667 0 0 1 57.03125,57.029297 57.029667,57.029667 0 0 1 -57.03125,57.0293 57.029667,57.029667 0 0 1 -57.02929,-57.0293 57.029667,57.029667 0 0 1 57.02929,-57.029297 z"
     style="opacity:1;fill:#000000;fill-opacity:1;stroke:none;stroke-width:3.13147402;stroke-miterlimit:4;stroke-dasharray:none;stroke-opacity:1" />
</svg>
